<svg width="22" height="28" viewBox="0 0 22 28" fill="none" xmlns="http://www.w3.org/2000/svg">
<path d="M12.1064 17.7502H10.1064V27.8802H12.1064V17.7502Z" fill="url(#paint0_linear_39_45)"/>
<path d="M12.1064 17.7502H10.1064V27.8802H12.1064V17.7502Z" fill="url(#paint1_linear_39_45)"/>
<path d="M12.1064 17.7502H10.1064V27.8802H12.1064V17.7502Z" fill="url(#paint2_linear_39_45)"/>
<path d="M12.1064 17.7502H10.1064V27.8802H12.1064V17.7502Z" fill="url(#paint3_linear_39_45)"/>
<path d="M12.1064 17.7502H10.1064V27.8802H12.1064V17.7502Z" fill="url(#paint4_radial_39_45)"/>
<path d="M3.09424 23.5003C3.09424 25.9003 5.04424 27.8503 7.35424 27.8703L10.2342 27.8803C10.3742 27.8803 10.4942 27.7603 10.4842 27.6103C10.3442 24.9503 8.14424 22.8003 5.44424 22.8003H3.37424C3.21424 22.8003 3.09424 22.9303 3.09424 23.0803V23.5003Z" fill="url(#paint5_linear_39_45)"/>
<path d="M3.09424 23.5003C3.09424 25.9003 5.04424 27.8503 7.35424 27.8703L10.2342 27.8803C10.3742 27.8803 10.4942 27.7603 10.4842 27.6103C10.3442 24.9503 8.14424 22.8003 5.44424 22.8003H3.37424C3.21424 22.8003 3.09424 22.9303 3.09424 23.0803V23.5003Z" fill="url(#paint6_radial_39_45)"/>
<path d="M3.09424 23.5003C3.09424 25.9003 5.04424 27.8503 7.35424 27.8703L10.2342 27.8803C10.3742 27.8803 10.4942 27.7603 10.4842 27.6103C10.3442 24.9503 8.14424 22.8003 5.44424 22.8003H3.37424C3.21424 22.8003 3.09424 22.9303 3.09424 23.0803V23.5003Z" fill="url(#paint7_radial_39_45)"/>
<path d="M3.09424 23.5003C3.09424 25.9003 5.04424 27.8503 7.35424 27.8703L10.2342 27.8803C10.3742 27.8803 10.4942 27.7603 10.4842 27.6103C10.3442 24.9503 8.14424 22.8003 5.44424 22.8003H3.37424C3.21424 22.8003 3.09424 22.9303 3.09424 23.0803V23.5003Z" fill="url(#paint8_radial_39_45)" fill-opacity="0.6"/>
<path d="M3.09424 23.5003C3.09424 25.9003 5.04424 27.8503 7.35424 27.8703L10.2342 27.8803C10.3742 27.8803 10.4942 27.7603 10.4842 27.6103C10.3442 24.9503 8.14424 22.8003 5.44424 22.8003H3.37424C3.21424 22.8003 3.09424 22.9303 3.09424 23.0803V23.5003Z" fill="url(#paint9_radial_39_45)"/>
<path d="M3.09424 23.5003C3.09424 25.9003 5.04424 27.8503 7.35424 27.8703L10.2342 27.8803C10.3742 27.8803 10.4942 27.7603 10.4842 27.6103C10.3442 24.9503 8.14424 22.8003 5.44424 22.8003H3.37424C3.21424 22.8003 3.09424 22.9303 3.09424 23.0803V23.5003Z" fill="url(#paint10_radial_39_45)" fill-opacity="0.7"/>
<path d="M3.09424 23.5003C3.09424 25.9003 5.04424 27.8503 7.35424 27.8703L10.2342 27.8803C10.3742 27.8803 10.4942 27.7603 10.4842 27.6103C10.3442 24.9503 8.14424 22.8003 5.44424 22.8003H3.37424C3.21424 22.8003 3.09424 22.9303 3.09424 23.0803V23.5003Z" fill="url(#paint11_linear_39_45)"/>
<path d="M3.09424 23.5003C3.09424 25.9003 5.04424 27.8503 7.35424 27.8703L10.2342 27.8803C10.3742 27.8803 10.4942 27.7603 10.4842 27.6103C10.3442 24.9503 8.14424 22.8003 5.44424 22.8003H3.37424C3.21424 22.8003 3.09424 22.9303 3.09424 23.0803V23.5003Z" fill="url(#paint12_radial_39_45)"/>
<path d="M3.09424 23.5003C3.09424 25.9003 5.04424 27.8503 7.35424 27.8703L10.2342 27.8803C10.3742 27.8803 10.4942 27.7603 10.4842 27.6103C10.3442 24.9503 8.14424 22.8003 5.44424 22.8003H3.37424C3.21424 22.8003 3.09424 22.9303 3.09424 23.0803V23.5003Z" fill="url(#paint13_radial_39_45)" fill-opacity="0.6"/>
<path d="M3.09424 23.5003C3.09424 25.9003 5.04424 27.8503 7.35424 27.8703L10.2342 27.8803C10.3742 27.8803 10.4942 27.7603 10.4842 27.6103C10.3442 24.9503 8.14424 22.8003 5.44424 22.8003H3.37424C3.21424 22.8003 3.09424 22.9303 3.09424 23.0803V23.5003Z" fill="url(#paint14_radial_39_45)" fill-opacity="0.6"/>
<path d="M3.09424 23.5003C3.09424 25.9003 5.04424 27.8503 7.35424 27.8703L10.2342 27.8803C10.3742 27.8803 10.4942 27.7603 10.4842 27.6103C10.3442 24.9503 8.14424 22.8003 5.44424 22.8003H3.37424C3.21424 22.8003 3.09424 22.9303 3.09424 23.0803V23.5003Z" fill="url(#paint15_radial_39_45)"/>
<path d="M3.09424 23.5003C3.09424 25.9003 5.04424 27.8503 7.35424 27.8703L10.2342 27.8803C10.3742 27.8803 10.4942 27.7603 10.4842 27.6103C10.3442 24.9503 8.14424 22.8003 5.44424 22.8003H3.37424C3.21424 22.8003 3.09424 22.9303 3.09424 23.0803V23.5003Z" fill="url(#paint16_radial_39_45)"/>
<path d="M11.7903 27.1803C11.7903 24.7803 13.7403 22.8303 16.0503 22.8103L18.9303 22.8003C19.0703 22.8003 19.1903 22.9203 19.1803 23.0703C19.0403 25.7303 16.8403 27.8803 14.1403 27.8803H12.0703C11.9103 27.8803 11.7903 27.7503 11.7903 27.6003V27.1803Z" fill="url(#paint17_linear_39_45)"/>
<path d="M11.7903 27.1803C11.7903 24.7803 13.7403 22.8303 16.0503 22.8103L18.9303 22.8003C19.0703 22.8003 19.1903 22.9203 19.1803 23.0703C19.0403 25.7303 16.8403 27.8803 14.1403 27.8803H12.0703C11.9103 27.8803 11.7903 27.7503 11.7903 27.6003V27.1803Z" fill="url(#paint18_radial_39_45)"/>
<path d="M11.7903 27.1803C11.7903 24.7803 13.7403 22.8303 16.0503 22.8103L18.9303 22.8003C19.0703 22.8003 19.1903 22.9203 19.1803 23.0703C19.0403 25.7303 16.8403 27.8803 14.1403 27.8803H12.0703C11.9103 27.8803 11.7903 27.7503 11.7903 27.6003V27.1803Z" fill="url(#paint19_radial_39_45)"/>
<path d="M11.7903 27.1803C11.7903 24.7803 13.7403 22.8303 16.0503 22.8103L18.9303 22.8003C19.0703 22.8003 19.1903 22.9203 19.1803 23.0703C19.0403 25.7303 16.8403 27.8803 14.1403 27.8803H12.0703C11.9103 27.8803 11.7903 27.7503 11.7903 27.6003V27.1803Z" fill="url(#paint20_radial_39_45)"/>
<path d="M11.7903 27.1803C11.7903 24.7803 13.7403 22.8303 16.0503 22.8103L18.9303 22.8003C19.0703 22.8003 19.1903 22.9203 19.1803 23.0703C19.0403 25.7303 16.8403 27.8803 14.1403 27.8803H12.0703C11.9103 27.8803 11.7903 27.7503 11.7903 27.6003V27.1803Z" fill="url(#paint21_radial_39_45)"/>
<path d="M11.7903 27.1803C11.7903 24.7803 13.7403 22.8303 16.0503 22.8103L18.9303 22.8003C19.0703 22.8003 19.1903 22.9203 19.1803 23.0703C19.0403 25.7303 16.8403 27.8803 14.1403 27.8803H12.0703C11.9103 27.8803 11.7903 27.7503 11.7903 27.6003V27.1803Z" fill="url(#paint22_radial_39_45)"/>
<path d="M11.7903 27.1803C11.7903 24.7803 13.7403 22.8303 16.0503 22.8103L18.9303 22.8003C19.0703 22.8003 19.1903 22.9203 19.1803 23.0703C19.0403 25.7303 16.8403 27.8803 14.1403 27.8803H12.0703C11.9103 27.8803 11.7903 27.7503 11.7903 27.6003V27.1803Z" fill="url(#paint23_radial_39_45)"/>
<path d="M11.7903 27.1803C11.7903 24.7803 13.7403 22.8303 16.0503 22.8103L18.9303 22.8003C19.0703 22.8003 19.1903 22.9203 19.1803 23.0703C19.0403 25.7303 16.8403 27.8803 14.1403 27.8803H12.0703C11.9103 27.8803 11.7903 27.7503 11.7903 27.6003V27.1803Z" fill="url(#paint24_linear_39_45)"/>
<path d="M11.7903 27.1803C11.7903 24.7803 13.7403 22.8303 16.0503 22.8103L18.9303 22.8003C19.0703 22.8003 19.1903 22.9203 19.1803 23.0703C19.0403 25.7303 16.8403 27.8803 14.1403 27.8803H12.0703C11.9103 27.8803 11.7903 27.7503 11.7903 27.6003V27.1803Z" fill="url(#paint25_linear_39_45)"/>
<path d="M11.7903 27.1803C11.7903 24.7803 13.7403 22.8303 16.0503 22.8103L18.9303 22.8003C19.0703 22.8003 19.1903 22.9203 19.1803 23.0703C19.0403 25.7303 16.8403 27.8803 14.1403 27.8803H12.0703C11.9103 27.8803 11.7903 27.7503 11.7903 27.6003V27.1803Z" fill="url(#paint26_radial_39_45)"/>
<path d="M11.7903 27.1803C11.7903 24.7803 13.7403 22.8303 16.0503 22.8103L18.9303 22.8003C19.0703 22.8003 19.1903 22.9203 19.1803 23.0703C19.0403 25.7303 16.8403 27.8803 14.1403 27.8803H12.0703C11.9103 27.8803 11.7903 27.7503 11.7903 27.6003V27.1803Z" fill="url(#paint27_radial_39_45)"/>
<path d="M21.9464 12.4503C22.0764 11.3803 20.7564 10.3103 18.8464 9.78034C20.4764 8.67034 21.3664 7.23034 20.8964 6.27034C20.4264 5.30034 18.7364 5.12034 16.8464 5.72034C17.6064 3.90034 17.5764 2.21034 16.6564 1.66034C15.8164 1.15034 14.4764 1.74034 13.2864 3.01034C12.9564 1.31034 12.1364 0.11034 11.1564 0.10034C10.0964 0.0703402 9.18644 1.43034 8.84644 3.32034C7.58644 1.87034 6.09644 1.16034 5.20644 1.72034C4.27644 2.30034 4.28644 4.06034 5.11644 5.91034C3.17644 5.29034 1.43644 5.49034 0.966438 6.49034C0.516438 7.46034 1.43644 8.89034 3.09644 9.98034C1.20644 10.5403 -0.0935625 11.6203 0.0564375 12.6903C0.206438 13.7603 1.75644 14.4503 3.74644 14.4703C2.46644 15.9703 1.96644 17.5803 2.67644 18.4003C3.38644 19.2203 5.06644 18.9503 6.73644 17.8803C6.47644 19.8303 6.94644 21.4603 7.97644 21.7603C9.01644 22.0603 10.2764 20.9203 11.0964 19.1103C11.9464 20.8903 13.2164 22.0003 14.2464 21.6903C15.2764 21.3803 15.7264 19.7303 15.4264 17.7703C17.1064 18.8003 18.7764 19.0403 19.4664 18.2203C20.1664 17.3903 19.6364 15.7703 18.3164 14.2903C20.2864 14.2303 21.8164 13.5203 21.9464 12.4503ZM11.4564 9.42034C11.5464 9.54034 11.6564 9.64034 11.7864 9.72034C11.9464 9.81034 12.1164 9.86034 12.3064 9.88034C12.3164 10.0603 12.3464 10.2303 12.4264 10.3803C12.5064 10.5403 12.6264 10.6803 12.7764 10.8003C12.6864 10.9503 12.6264 11.1103 12.6064 11.2903C12.5864 11.4703 12.6164 11.6503 12.6664 11.8303C12.5064 11.9103 12.3664 12.0103 12.2564 12.1403C12.1364 12.2803 12.0664 12.4503 12.0164 12.6303C11.8364 12.6103 11.6664 12.6203 11.5064 12.6703C11.3364 12.7203 11.1764 12.8203 11.0364 12.9503C10.8964 12.8403 10.7464 12.7503 10.5864 12.7003C10.4064 12.6503 10.2264 12.6503 10.0464 12.6803C9.99644 12.5103 9.91644 12.3603 9.79644 12.2303C9.67644 12.0903 9.52644 11.9903 9.35644 11.9103C9.40644 11.7403 9.41644 11.5703 9.39644 11.4003C9.36644 11.2203 9.29644 11.0503 9.19644 10.8903C9.32644 10.7703 9.43644 10.6403 9.50644 10.4803C9.58644 10.3003 9.61644 10.1003 9.60644 9.89034C9.81644 9.87034 10.0164 9.83034 10.1864 9.72034C10.3164 9.64034 10.4264 9.53034 10.5164 9.41034C10.6664 9.47034 10.8164 9.51034 10.9764 9.51034C11.1464 9.51034 11.3064 9.48034 11.4564 9.42034Z" fill="url(#paint28_linear_39_45)"/>
<path d="M21.9464 12.4503C22.0764 11.3803 20.7564 10.3103 18.8464 9.78034C20.4764 8.67034 21.3664 7.23034 20.8964 6.27034C20.4264 5.30034 18.7364 5.12034 16.8464 5.72034C17.6064 3.90034 17.5764 2.21034 16.6564 1.66034C15.8164 1.15034 14.4764 1.74034 13.2864 3.01034C12.9564 1.31034 12.1364 0.11034 11.1564 0.10034C10.0964 0.0703402 9.18644 1.43034 8.84644 3.32034C7.58644 1.87034 6.09644 1.16034 5.20644 1.72034C4.27644 2.30034 4.28644 4.06034 5.11644 5.91034C3.17644 5.29034 1.43644 5.49034 0.966438 6.49034C0.516438 7.46034 1.43644 8.89034 3.09644 9.98034C1.20644 10.5403 -0.0935625 11.6203 0.0564375 12.6903C0.206438 13.7603 1.75644 14.4503 3.74644 14.4703C2.46644 15.9703 1.96644 17.5803 2.67644 18.4003C3.38644 19.2203 5.06644 18.9503 6.73644 17.8803C6.47644 19.8303 6.94644 21.4603 7.97644 21.7603C9.01644 22.0603 10.2764 20.9203 11.0964 19.1103C11.9464 20.8903 13.2164 22.0003 14.2464 21.6903C15.2764 21.3803 15.7264 19.7303 15.4264 17.7703C17.1064 18.8003 18.7764 19.0403 19.4664 18.2203C20.1664 17.3903 19.6364 15.7703 18.3164 14.2903C20.2864 14.2303 21.8164 13.5203 21.9464 12.4503ZM11.4564 9.42034C11.5464 9.54034 11.6564 9.64034 11.7864 9.72034C11.9464 9.81034 12.1164 9.86034 12.3064 9.88034C12.3164 10.0603 12.3464 10.2303 12.4264 10.3803C12.5064 10.5403 12.6264 10.6803 12.7764 10.8003C12.6864 10.9503 12.6264 11.1103 12.6064 11.2903C12.5864 11.4703 12.6164 11.6503 12.6664 11.8303C12.5064 11.9103 12.3664 12.0103 12.2564 12.1403C12.1364 12.2803 12.0664 12.4503 12.0164 12.6303C11.8364 12.6103 11.6664 12.6203 11.5064 12.6703C11.3364 12.7203 11.1764 12.8203 11.0364 12.9503C10.8964 12.8403 10.7464 12.7503 10.5864 12.7003C10.4064 12.6503 10.2264 12.6503 10.0464 12.6803C9.99644 12.5103 9.91644 12.3603 9.79644 12.2303C9.67644 12.0903 9.52644 11.9903 9.35644 11.9103C9.40644 11.7403 9.41644 11.5703 9.39644 11.4003C9.36644 11.2203 9.29644 11.0503 9.19644 10.8903C9.32644 10.7703 9.43644 10.6403 9.50644 10.4803C9.58644 10.3003 9.61644 10.1003 9.60644 9.89034C9.81644 9.87034 10.0164 9.83034 10.1864 9.72034C10.3164 9.64034 10.4264 9.53034 10.5164 9.41034C10.6664 9.47034 10.8164 9.51034 10.9764 9.51034C11.1464 9.51034 11.3064 9.48034 11.4564 9.42034Z" fill="url(#paint29_radial_39_45)"/>
<path d="M21.9464 12.4503C22.0764 11.3803 20.7564 10.3103 18.8464 9.78034C20.4764 8.67034 21.3664 7.23034 20.8964 6.27034C20.4264 5.30034 18.7364 5.12034 16.8464 5.72034C17.6064 3.90034 17.5764 2.21034 16.6564 1.66034C15.8164 1.15034 14.4764 1.74034 13.2864 3.01034C12.9564 1.31034 12.1364 0.11034 11.1564 0.10034C10.0964 0.0703402 9.18644 1.43034 8.84644 3.32034C7.58644 1.87034 6.09644 1.16034 5.20644 1.72034C4.27644 2.30034 4.28644 4.06034 5.11644 5.91034C3.17644 5.29034 1.43644 5.49034 0.966438 6.49034C0.516438 7.46034 1.43644 8.89034 3.09644 9.98034C1.20644 10.5403 -0.0935625 11.6203 0.0564375 12.6903C0.206438 13.7603 1.75644 14.4503 3.74644 14.4703C2.46644 15.9703 1.96644 17.5803 2.67644 18.4003C3.38644 19.2203 5.06644 18.9503 6.73644 17.8803C6.47644 19.8303 6.94644 21.4603 7.97644 21.7603C9.01644 22.0603 10.2764 20.9203 11.0964 19.1103C11.9464 20.8903 13.2164 22.0003 14.2464 21.6903C15.2764 21.3803 15.7264 19.7303 15.4264 17.7703C17.1064 18.8003 18.7764 19.0403 19.4664 18.2203C20.1664 17.3903 19.6364 15.7703 18.3164 14.2903C20.2864 14.2303 21.8164 13.5203 21.9464 12.4503ZM11.4564 9.42034C11.5464 9.54034 11.6564 9.64034 11.7864 9.72034C11.9464 9.81034 12.1164 9.86034 12.3064 9.88034C12.3164 10.0603 12.3464 10.2303 12.4264 10.3803C12.5064 10.5403 12.6264 10.6803 12.7764 10.8003C12.6864 10.9503 12.6264 11.1103 12.6064 11.2903C12.5864 11.4703 12.6164 11.6503 12.6664 11.8303C12.5064 11.9103 12.3664 12.0103 12.2564 12.1403C12.1364 12.2803 12.0664 12.4503 12.0164 12.6303C11.8364 12.6103 11.6664 12.6203 11.5064 12.6703C11.3364 12.7203 11.1764 12.8203 11.0364 12.9503C10.8964 12.8403 10.7464 12.7503 10.5864 12.7003C10.4064 12.6503 10.2264 12.6503 10.0464 12.6803C9.99644 12.5103 9.91644 12.3603 9.79644 12.2303C9.67644 12.0903 9.52644 11.9903 9.35644 11.9103C9.40644 11.7403 9.41644 11.5703 9.39644 11.4003C9.36644 11.2203 9.29644 11.0503 9.19644 10.8903C9.32644 10.7703 9.43644 10.6403 9.50644 10.4803C9.58644 10.3003 9.61644 10.1003 9.60644 9.89034C9.81644 9.87034 10.0164 9.83034 10.1864 9.72034C10.3164 9.64034 10.4264 9.53034 10.5164 9.41034C10.6664 9.47034 10.8164 9.51034 10.9764 9.51034C11.1464 9.51034 11.3064 9.48034 11.4564 9.42034Z" fill="url(#paint30_radial_39_45)"/>
<path d="M21.9464 12.4503C22.0764 11.3803 20.7564 10.3103 18.8464 9.78034C20.4764 8.67034 21.3664 7.23034 20.8964 6.27034C20.4264 5.30034 18.7364 5.12034 16.8464 5.72034C17.6064 3.90034 17.5764 2.21034 16.6564 1.66034C15.8164 1.15034 14.4764 1.74034 13.2864 3.01034C12.9564 1.31034 12.1364 0.11034 11.1564 0.10034C10.0964 0.0703402 9.18644 1.43034 8.84644 3.32034C7.58644 1.87034 6.09644 1.16034 5.20644 1.72034C4.27644 2.30034 4.28644 4.06034 5.11644 5.91034C3.17644 5.29034 1.43644 5.49034 0.966438 6.49034C0.516438 7.46034 1.43644 8.89034 3.09644 9.98034C1.20644 10.5403 -0.0935625 11.6203 0.0564375 12.6903C0.206438 13.7603 1.75644 14.4503 3.74644 14.4703C2.46644 15.9703 1.96644 17.5803 2.67644 18.4003C3.38644 19.2203 5.06644 18.9503 6.73644 17.8803C6.47644 19.8303 6.94644 21.4603 7.97644 21.7603C9.01644 22.0603 10.2764 20.9203 11.0964 19.1103C11.9464 20.8903 13.2164 22.0003 14.2464 21.6903C15.2764 21.3803 15.7264 19.7303 15.4264 17.7703C17.1064 18.8003 18.7764 19.0403 19.4664 18.2203C20.1664 17.3903 19.6364 15.7703 18.3164 14.2903C20.2864 14.2303 21.8164 13.5203 21.9464 12.4503ZM11.4564 9.42034C11.5464 9.54034 11.6564 9.64034 11.7864 9.72034C11.9464 9.81034 12.1164 9.86034 12.3064 9.88034C12.3164 10.0603 12.3464 10.2303 12.4264 10.3803C12.5064 10.5403 12.6264 10.6803 12.7764 10.8003C12.6864 10.9503 12.6264 11.1103 12.6064 11.2903C12.5864 11.4703 12.6164 11.6503 12.6664 11.8303C12.5064 11.9103 12.3664 12.0103 12.2564 12.1403C12.1364 12.2803 12.0664 12.4503 12.0164 12.6303C11.8364 12.6103 11.6664 12.6203 11.5064 12.6703C11.3364 12.7203 11.1764 12.8203 11.0364 12.9503C10.8964 12.8403 10.7464 12.7503 10.5864 12.7003C10.4064 12.6503 10.2264 12.6503 10.0464 12.6803C9.99644 12.5103 9.91644 12.3603 9.79644 12.2303C9.67644 12.0903 9.52644 11.9903 9.35644 11.9103C9.40644 11.7403 9.41644 11.5703 9.39644 11.4003C9.36644 11.2203 9.29644 11.0503 9.19644 10.8903C9.32644 10.7703 9.43644 10.6403 9.50644 10.4803C9.58644 10.3003 9.61644 10.1003 9.60644 9.89034C9.81644 9.87034 10.0164 9.83034 10.1864 9.72034C10.3164 9.64034 10.4264 9.53034 10.5164 9.41034C10.6664 9.47034 10.8164 9.51034 10.9764 9.51034C11.1464 9.51034 11.3064 9.48034 11.4564 9.42034Z" fill="url(#paint31_radial_39_45)" fill-opacity="0.6"/>
<path d="M21.9464 12.4503C22.0764 11.3803 20.7564 10.3103 18.8464 9.78034C20.4764 8.67034 21.3664 7.23034 20.8964 6.27034C20.4264 5.30034 18.7364 5.12034 16.8464 5.72034C17.6064 3.90034 17.5764 2.21034 16.6564 1.66034C15.8164 1.15034 14.4764 1.74034 13.2864 3.01034C12.9564 1.31034 12.1364 0.11034 11.1564 0.10034C10.0964 0.0703402 9.18644 1.43034 8.84644 3.32034C7.58644 1.87034 6.09644 1.16034 5.20644 1.72034C4.27644 2.30034 4.28644 4.06034 5.11644 5.91034C3.17644 5.29034 1.43644 5.49034 0.966438 6.49034C0.516438 7.46034 1.43644 8.89034 3.09644 9.98034C1.20644 10.5403 -0.0935625 11.6203 0.0564375 12.6903C0.206438 13.7603 1.75644 14.4503 3.74644 14.4703C2.46644 15.9703 1.96644 17.5803 2.67644 18.4003C3.38644 19.2203 5.06644 18.9503 6.73644 17.8803C6.47644 19.8303 6.94644 21.4603 7.97644 21.7603C9.01644 22.0603 10.2764 20.9203 11.0964 19.1103C11.9464 20.8903 13.2164 22.0003 14.2464 21.6903C15.2764 21.3803 15.7264 19.7303 15.4264 17.7703C17.1064 18.8003 18.7764 19.0403 19.4664 18.2203C20.1664 17.3903 19.6364 15.7703 18.3164 14.2903C20.2864 14.2303 21.8164 13.5203 21.9464 12.4503ZM11.4564 9.42034C11.5464 9.54034 11.6564 9.64034 11.7864 9.72034C11.9464 9.81034 12.1164 9.86034 12.3064 9.88034C12.3164 10.0603 12.3464 10.2303 12.4264 10.3803C12.5064 10.5403 12.6264 10.6803 12.7764 10.8003C12.6864 10.9503 12.6264 11.1103 12.6064 11.2903C12.5864 11.4703 12.6164 11.6503 12.6664 11.8303C12.5064 11.9103 12.3664 12.0103 12.2564 12.1403C12.1364 12.2803 12.0664 12.4503 12.0164 12.6303C11.8364 12.6103 11.6664 12.6203 11.5064 12.6703C11.3364 12.7203 11.1764 12.8203 11.0364 12.9503C10.8964 12.8403 10.7464 12.7503 10.5864 12.7003C10.4064 12.6503 10.2264 12.6503 10.0464 12.6803C9.99644 12.5103 9.91644 12.3603 9.79644 12.2303C9.67644 12.0903 9.52644 11.9903 9.35644 11.9103C9.40644 11.7403 9.41644 11.5703 9.39644 11.4003C9.36644 11.2203 9.29644 11.0503 9.19644 10.8903C9.32644 10.7703 9.43644 10.6403 9.50644 10.4803C9.58644 10.3003 9.61644 10.1003 9.60644 9.89034C9.81644 9.87034 10.0164 9.83034 10.1864 9.72034C10.3164 9.64034 10.4264 9.53034 10.5164 9.41034C10.6664 9.47034 10.8164 9.51034 10.9764 9.51034C11.1464 9.51034 11.3064 9.48034 11.4564 9.42034Z" fill="url(#paint32_radial_39_45)" fill-opacity="0.6"/>
<path d="M21.9464 12.4503C22.0764 11.3803 20.7564 10.3103 18.8464 9.78034C20.4764 8.67034 21.3664 7.23034 20.8964 6.27034C20.4264 5.30034 18.7364 5.12034 16.8464 5.72034C17.6064 3.90034 17.5764 2.21034 16.6564 1.66034C15.8164 1.15034 14.4764 1.74034 13.2864 3.01034C12.9564 1.31034 12.1364 0.11034 11.1564 0.10034C10.0964 0.0703402 9.18644 1.43034 8.84644 3.32034C7.58644 1.87034 6.09644 1.16034 5.20644 1.72034C4.27644 2.30034 4.28644 4.06034 5.11644 5.91034C3.17644 5.29034 1.43644 5.49034 0.966438 6.49034C0.516438 7.46034 1.43644 8.89034 3.09644 9.98034C1.20644 10.5403 -0.0935625 11.6203 0.0564375 12.6903C0.206438 13.7603 1.75644 14.4503 3.74644 14.4703C2.46644 15.9703 1.96644 17.5803 2.67644 18.4003C3.38644 19.2203 5.06644 18.9503 6.73644 17.8803C6.47644 19.8303 6.94644 21.4603 7.97644 21.7603C9.01644 22.0603 10.2764 20.9203 11.0964 19.1103C11.9464 20.8903 13.2164 22.0003 14.2464 21.6903C15.2764 21.3803 15.7264 19.7303 15.4264 17.7703C17.1064 18.8003 18.7764 19.0403 19.4664 18.2203C20.1664 17.3903 19.6364 15.7703 18.3164 14.2903C20.2864 14.2303 21.8164 13.5203 21.9464 12.4503ZM11.4564 9.42034C11.5464 9.54034 11.6564 9.64034 11.7864 9.72034C11.9464 9.81034 12.1164 9.86034 12.3064 9.88034C12.3164 10.0603 12.3464 10.2303 12.4264 10.3803C12.5064 10.5403 12.6264 10.6803 12.7764 10.8003C12.6864 10.9503 12.6264 11.1103 12.6064 11.2903C12.5864 11.4703 12.6164 11.6503 12.6664 11.8303C12.5064 11.9103 12.3664 12.0103 12.2564 12.1403C12.1364 12.2803 12.0664 12.4503 12.0164 12.6303C11.8364 12.6103 11.6664 12.6203 11.5064 12.6703C11.3364 12.7203 11.1764 12.8203 11.0364 12.9503C10.8964 12.8403 10.7464 12.7503 10.5864 12.7003C10.4064 12.6503 10.2264 12.6503 10.0464 12.6803C9.99644 12.5103 9.91644 12.3603 9.79644 12.2303C9.67644 12.0903 9.52644 11.9903 9.35644 11.9103C9.40644 11.7403 9.41644 11.5703 9.39644 11.4003C9.36644 11.2203 9.29644 11.0503 9.19644 10.8903C9.32644 10.7703 9.43644 10.6403 9.50644 10.4803C9.58644 10.3003 9.61644 10.1003 9.60644 9.89034C9.81644 9.87034 10.0164 9.83034 10.1864 9.72034C10.3164 9.64034 10.4264 9.53034 10.5164 9.41034C10.6664 9.47034 10.8164 9.51034 10.9764 9.51034C11.1464 9.51034 11.3064 9.48034 11.4564 9.42034Z" fill="url(#paint33_radial_39_45)" fill-opacity="0.8"/>
<path d="M21.9464 12.4503C22.0764 11.3803 20.7564 10.3103 18.8464 9.78034C20.4764 8.67034 21.3664 7.23034 20.8964 6.27034C20.4264 5.30034 18.7364 5.12034 16.8464 5.72034C17.6064 3.90034 17.5764 2.21034 16.6564 1.66034C15.8164 1.15034 14.4764 1.74034 13.2864 3.01034C12.9564 1.31034 12.1364 0.11034 11.1564 0.10034C10.0964 0.0703402 9.18644 1.43034 8.84644 3.32034C7.58644 1.87034 6.09644 1.16034 5.20644 1.72034C4.27644 2.30034 4.28644 4.06034 5.11644 5.91034C3.17644 5.29034 1.43644 5.49034 0.966438 6.49034C0.516438 7.46034 1.43644 8.89034 3.09644 9.98034C1.20644 10.5403 -0.0935625 11.6203 0.0564375 12.6903C0.206438 13.7603 1.75644 14.4503 3.74644 14.4703C2.46644 15.9703 1.96644 17.5803 2.67644 18.4003C3.38644 19.2203 5.06644 18.9503 6.73644 17.8803C6.47644 19.8303 6.94644 21.4603 7.97644 21.7603C9.01644 22.0603 10.2764 20.9203 11.0964 19.1103C11.9464 20.8903 13.2164 22.0003 14.2464 21.6903C15.2764 21.3803 15.7264 19.7303 15.4264 17.7703C17.1064 18.8003 18.7764 19.0403 19.4664 18.2203C20.1664 17.3903 19.6364 15.7703 18.3164 14.2903C20.2864 14.2303 21.8164 13.5203 21.9464 12.4503ZM11.4564 9.42034C11.5464 9.54034 11.6564 9.64034 11.7864 9.72034C11.9464 9.81034 12.1164 9.86034 12.3064 9.88034C12.3164 10.0603 12.3464 10.2303 12.4264 10.3803C12.5064 10.5403 12.6264 10.6803 12.7764 10.8003C12.6864 10.9503 12.6264 11.1103 12.6064 11.2903C12.5864 11.4703 12.6164 11.6503 12.6664 11.8303C12.5064 11.9103 12.3664 12.0103 12.2564 12.1403C12.1364 12.2803 12.0664 12.4503 12.0164 12.6303C11.8364 12.6103 11.6664 12.6203 11.5064 12.6703C11.3364 12.7203 11.1764 12.8203 11.0364 12.9503C10.8964 12.8403 10.7464 12.7503 10.5864 12.7003C10.4064 12.6503 10.2264 12.6503 10.0464 12.6803C9.99644 12.5103 9.91644 12.3603 9.79644 12.2303C9.67644 12.0903 9.52644 11.9903 9.35644 11.9103C9.40644 11.7403 9.41644 11.5703 9.39644 11.4003C9.36644 11.2203 9.29644 11.0503 9.19644 10.8903C9.32644 10.7703 9.43644 10.6403 9.50644 10.4803C9.58644 10.3003 9.61644 10.1003 9.60644 9.89034C9.81644 9.87034 10.0164 9.83034 10.1864 9.72034C10.3164 9.64034 10.4264 9.53034 10.5164 9.41034C10.6664 9.47034 10.8164 9.51034 10.9764 9.51034C11.1464 9.51034 11.3064 9.48034 11.4564 9.42034Z" fill="url(#paint34_radial_39_45)"/>
<path d="M21.9464 12.4503C22.0764 11.3803 20.7564 10.3103 18.8464 9.78034C20.4764 8.67034 21.3664 7.23034 20.8964 6.27034C20.4264 5.30034 18.7364 5.12034 16.8464 5.72034C17.6064 3.90034 17.5764 2.21034 16.6564 1.66034C15.8164 1.15034 14.4764 1.74034 13.2864 3.01034C12.9564 1.31034 12.1364 0.11034 11.1564 0.10034C10.0964 0.0703402 9.18644 1.43034 8.84644 3.32034C7.58644 1.87034 6.09644 1.16034 5.20644 1.72034C4.27644 2.30034 4.28644 4.06034 5.11644 5.91034C3.17644 5.29034 1.43644 5.49034 0.966438 6.49034C0.516438 7.46034 1.43644 8.89034 3.09644 9.98034C1.20644 10.5403 -0.0935625 11.6203 0.0564375 12.6903C0.206438 13.7603 1.75644 14.4503 3.74644 14.4703C2.46644 15.9703 1.96644 17.5803 2.67644 18.4003C3.38644 19.2203 5.06644 18.9503 6.73644 17.8803C6.47644 19.8303 6.94644 21.4603 7.97644 21.7603C9.01644 22.0603 10.2764 20.9203 11.0964 19.1103C11.9464 20.8903 13.2164 22.0003 14.2464 21.6903C15.2764 21.3803 15.7264 19.7303 15.4264 17.7703C17.1064 18.8003 18.7764 19.0403 19.4664 18.2203C20.1664 17.3903 19.6364 15.7703 18.3164 14.2903C20.2864 14.2303 21.8164 13.5203 21.9464 12.4503ZM11.4564 9.42034C11.5464 9.54034 11.6564 9.64034 11.7864 9.72034C11.9464 9.81034 12.1164 9.86034 12.3064 9.88034C12.3164 10.0603 12.3464 10.2303 12.4264 10.3803C12.5064 10.5403 12.6264 10.6803 12.7764 10.8003C12.6864 10.9503 12.6264 11.1103 12.6064 11.2903C12.5864 11.4703 12.6164 11.6503 12.6664 11.8303C12.5064 11.9103 12.3664 12.0103 12.2564 12.1403C12.1364 12.2803 12.0664 12.4503 12.0164 12.6303C11.8364 12.6103 11.6664 12.6203 11.5064 12.6703C11.3364 12.7203 11.1764 12.8203 11.0364 12.9503C10.8964 12.8403 10.7464 12.7503 10.5864 12.7003C10.4064 12.6503 10.2264 12.6503 10.0464 12.6803C9.99644 12.5103 9.91644 12.3603 9.79644 12.2303C9.67644 12.0903 9.52644 11.9903 9.35644 11.9103C9.40644 11.7403 9.41644 11.5703 9.39644 11.4003C9.36644 11.2203 9.29644 11.0503 9.19644 10.8903C9.32644 10.7703 9.43644 10.6403 9.50644 10.4803C9.58644 10.3003 9.61644 10.1003 9.60644 9.89034C9.81644 9.87034 10.0164 9.83034 10.1864 9.72034C10.3164 9.64034 10.4264 9.53034 10.5164 9.41034C10.6664 9.47034 10.8164 9.51034 10.9764 9.51034C11.1464 9.51034 11.3064 9.48034 11.4564 9.42034Z" fill="url(#paint35_radial_39_45)"/>
<path d="M21.9464 12.4503C22.0764 11.3803 20.7564 10.3103 18.8464 9.78034C20.4764 8.67034 21.3664 7.23034 20.8964 6.27034C20.4264 5.30034 18.7364 5.12034 16.8464 5.72034C17.6064 3.90034 17.5764 2.21034 16.6564 1.66034C15.8164 1.15034 14.4764 1.74034 13.2864 3.01034C12.9564 1.31034 12.1364 0.11034 11.1564 0.10034C10.0964 0.0703402 9.18644 1.43034 8.84644 3.32034C7.58644 1.87034 6.09644 1.16034 5.20644 1.72034C4.27644 2.30034 4.28644 4.06034 5.11644 5.91034C3.17644 5.29034 1.43644 5.49034 0.966438 6.49034C0.516438 7.46034 1.43644 8.89034 3.09644 9.98034C1.20644 10.5403 -0.0935625 11.6203 0.0564375 12.6903C0.206438 13.7603 1.75644 14.4503 3.74644 14.4703C2.46644 15.9703 1.96644 17.5803 2.67644 18.4003C3.38644 19.2203 5.06644 18.9503 6.73644 17.8803C6.47644 19.8303 6.94644 21.4603 7.97644 21.7603C9.01644 22.0603 10.2764 20.9203 11.0964 19.1103C11.9464 20.8903 13.2164 22.0003 14.2464 21.6903C15.2764 21.3803 15.7264 19.7303 15.4264 17.7703C17.1064 18.8003 18.7764 19.0403 19.4664 18.2203C20.1664 17.3903 19.6364 15.7703 18.3164 14.2903C20.2864 14.2303 21.8164 13.5203 21.9464 12.4503ZM11.4564 9.42034C11.5464 9.54034 11.6564 9.64034 11.7864 9.72034C11.9464 9.81034 12.1164 9.86034 12.3064 9.88034C12.3164 10.0603 12.3464 10.2303 12.4264 10.3803C12.5064 10.5403 12.6264 10.6803 12.7764 10.8003C12.6864 10.9503 12.6264 11.1103 12.6064 11.2903C12.5864 11.4703 12.6164 11.6503 12.6664 11.8303C12.5064 11.9103 12.3664 12.0103 12.2564 12.1403C12.1364 12.2803 12.0664 12.4503 12.0164 12.6303C11.8364 12.6103 11.6664 12.6203 11.5064 12.6703C11.3364 12.7203 11.1764 12.8203 11.0364 12.9503C10.8964 12.8403 10.7464 12.7503 10.5864 12.7003C10.4064 12.6503 10.2264 12.6503 10.0464 12.6803C9.99644 12.5103 9.91644 12.3603 9.79644 12.2303C9.67644 12.0903 9.52644 11.9903 9.35644 11.9103C9.40644 11.7403 9.41644 11.5703 9.39644 11.4003C9.36644 11.2203 9.29644 11.0503 9.19644 10.8903C9.32644 10.7703 9.43644 10.6403 9.50644 10.4803C9.58644 10.3003 9.61644 10.1003 9.60644 9.89034C9.81644 9.87034 10.0164 9.83034 10.1864 9.72034C10.3164 9.64034 10.4264 9.53034 10.5164 9.41034C10.6664 9.47034 10.8164 9.51034 10.9764 9.51034C11.1464 9.51034 11.3064 9.48034 11.4564 9.42034Z" fill="url(#paint36_radial_39_45)"/>
<path d="M21.9464 12.4503C22.0764 11.3803 20.7564 10.3103 18.8464 9.78034C20.4764 8.67034 21.3664 7.23034 20.8964 6.27034C20.4264 5.30034 18.7364 5.12034 16.8464 5.72034C17.6064 3.90034 17.5764 2.21034 16.6564 1.66034C15.8164 1.15034 14.4764 1.74034 13.2864 3.01034C12.9564 1.31034 12.1364 0.11034 11.1564 0.10034C10.0964 0.0703402 9.18644 1.43034 8.84644 3.32034C7.58644 1.87034 6.09644 1.16034 5.20644 1.72034C4.27644 2.30034 4.28644 4.06034 5.11644 5.91034C3.17644 5.29034 1.43644 5.49034 0.966438 6.49034C0.516438 7.46034 1.43644 8.89034 3.09644 9.98034C1.20644 10.5403 -0.0935625 11.6203 0.0564375 12.6903C0.206438 13.7603 1.75644 14.4503 3.74644 14.4703C2.46644 15.9703 1.96644 17.5803 2.67644 18.4003C3.38644 19.2203 5.06644 18.9503 6.73644 17.8803C6.47644 19.8303 6.94644 21.4603 7.97644 21.7603C9.01644 22.0603 10.2764 20.9203 11.0964 19.1103C11.9464 20.8903 13.2164 22.0003 14.2464 21.6903C15.2764 21.3803 15.7264 19.7303 15.4264 17.7703C17.1064 18.8003 18.7764 19.0403 19.4664 18.2203C20.1664 17.3903 19.6364 15.7703 18.3164 14.2903C20.2864 14.2303 21.8164 13.5203 21.9464 12.4503ZM11.4564 9.42034C11.5464 9.54034 11.6564 9.64034 11.7864 9.72034C11.9464 9.81034 12.1164 9.86034 12.3064 9.88034C12.3164 10.0603 12.3464 10.2303 12.4264 10.3803C12.5064 10.5403 12.6264 10.6803 12.7764 10.8003C12.6864 10.9503 12.6264 11.1103 12.6064 11.2903C12.5864 11.4703 12.6164 11.6503 12.6664 11.8303C12.5064 11.9103 12.3664 12.0103 12.2564 12.1403C12.1364 12.2803 12.0664 12.4503 12.0164 12.6303C11.8364 12.6103 11.6664 12.6203 11.5064 12.6703C11.3364 12.7203 11.1764 12.8203 11.0364 12.9503C10.8964 12.8403 10.7464 12.7503 10.5864 12.7003C10.4064 12.6503 10.2264 12.6503 10.0464 12.6803C9.99644 12.5103 9.91644 12.3603 9.79644 12.2303C9.67644 12.0903 9.52644 11.9903 9.35644 11.9103C9.40644 11.7403 9.41644 11.5703 9.39644 11.4003C9.36644 11.2203 9.29644 11.0503 9.19644 10.8903C9.32644 10.7703 9.43644 10.6403 9.50644 10.4803C9.58644 10.3003 9.61644 10.1003 9.60644 9.89034C9.81644 9.87034 10.0164 9.83034 10.1864 9.72034C10.3164 9.64034 10.4264 9.53034 10.5164 9.41034C10.6664 9.47034 10.8164 9.51034 10.9764 9.51034C11.1464 9.51034 11.3064 9.48034 11.4564 9.42034Z" fill="url(#paint37_radial_39_45)"/>
<path d="M21.9464 12.4503C22.0764 11.3803 20.7564 10.3103 18.8464 9.78034C20.4764 8.67034 21.3664 7.23034 20.8964 6.27034C20.4264 5.30034 18.7364 5.12034 16.8464 5.72034C17.6064 3.90034 17.5764 2.21034 16.6564 1.66034C15.8164 1.15034 14.4764 1.74034 13.2864 3.01034C12.9564 1.31034 12.1364 0.11034 11.1564 0.10034C10.0964 0.0703402 9.18644 1.43034 8.84644 3.32034C7.58644 1.87034 6.09644 1.16034 5.20644 1.72034C4.27644 2.30034 4.28644 4.06034 5.11644 5.91034C3.17644 5.29034 1.43644 5.49034 0.966438 6.49034C0.516438 7.46034 1.43644 8.89034 3.09644 9.98034C1.20644 10.5403 -0.0935625 11.6203 0.0564375 12.6903C0.206438 13.7603 1.75644 14.4503 3.74644 14.4703C2.46644 15.9703 1.96644 17.5803 2.67644 18.4003C3.38644 19.2203 5.06644 18.9503 6.73644 17.8803C6.47644 19.8303 6.94644 21.4603 7.97644 21.7603C9.01644 22.0603 10.2764 20.9203 11.0964 19.1103C11.9464 20.8903 13.2164 22.0003 14.2464 21.6903C15.2764 21.3803 15.7264 19.7303 15.4264 17.7703C17.1064 18.8003 18.7764 19.0403 19.4664 18.2203C20.1664 17.3903 19.6364 15.7703 18.3164 14.2903C20.2864 14.2303 21.8164 13.5203 21.9464 12.4503ZM11.4564 9.42034C11.5464 9.54034 11.6564 9.64034 11.7864 9.72034C11.9464 9.81034 12.1164 9.86034 12.3064 9.88034C12.3164 10.0603 12.3464 10.2303 12.4264 10.3803C12.5064 10.5403 12.6264 10.6803 12.7764 10.8003C12.6864 10.9503 12.6264 11.1103 12.6064 11.2903C12.5864 11.4703 12.6164 11.6503 12.6664 11.8303C12.5064 11.9103 12.3664 12.0103 12.2564 12.1403C12.1364 12.2803 12.0664 12.4503 12.0164 12.6303C11.8364 12.6103 11.6664 12.6203 11.5064 12.6703C11.3364 12.7203 11.1764 12.8203 11.0364 12.9503C10.8964 12.8403 10.7464 12.7503 10.5864 12.7003C10.4064 12.6503 10.2264 12.6503 10.0464 12.6803C9.99644 12.5103 9.91644 12.3603 9.79644 12.2303C9.67644 12.0903 9.52644 11.9903 9.35644 11.9103C9.40644 11.7403 9.41644 11.5703 9.39644 11.4003C9.36644 11.2203 9.29644 11.0503 9.19644 10.8903C9.32644 10.7703 9.43644 10.6403 9.50644 10.4803C9.58644 10.3003 9.61644 10.1003 9.60644 9.89034C9.81644 9.87034 10.0164 9.83034 10.1864 9.72034C10.3164 9.64034 10.4264 9.53034 10.5164 9.41034C10.6664 9.47034 10.8164 9.51034 10.9764 9.51034C11.1464 9.51034 11.3064 9.48034 11.4564 9.42034Z" fill="url(#paint38_radial_39_45)"/>
<path d="M21.9464 12.4503C22.0764 11.3803 20.7564 10.3103 18.8464 9.78034C20.4764 8.67034 21.3664 7.23034 20.8964 6.27034C20.4264 5.30034 18.7364 5.12034 16.8464 5.72034C17.6064 3.90034 17.5764 2.21034 16.6564 1.66034C15.8164 1.15034 14.4764 1.74034 13.2864 3.01034C12.9564 1.31034 12.1364 0.11034 11.1564 0.10034C10.0964 0.0703402 9.18644 1.43034 8.84644 3.32034C7.58644 1.87034 6.09644 1.16034 5.20644 1.72034C4.27644 2.30034 4.28644 4.06034 5.11644 5.91034C3.17644 5.29034 1.43644 5.49034 0.966438 6.49034C0.516438 7.46034 1.43644 8.89034 3.09644 9.98034C1.20644 10.5403 -0.0935625 11.6203 0.0564375 12.6903C0.206438 13.7603 1.75644 14.4503 3.74644 14.4703C2.46644 15.9703 1.96644 17.5803 2.67644 18.4003C3.38644 19.2203 5.06644 18.9503 6.73644 17.8803C6.47644 19.8303 6.94644 21.4603 7.97644 21.7603C9.01644 22.0603 10.2764 20.9203 11.0964 19.1103C11.9464 20.8903 13.2164 22.0003 14.2464 21.6903C15.2764 21.3803 15.7264 19.7303 15.4264 17.7703C17.1064 18.8003 18.7764 19.0403 19.4664 18.2203C20.1664 17.3903 19.6364 15.7703 18.3164 14.2903C20.2864 14.2303 21.8164 13.5203 21.9464 12.4503ZM11.4564 9.42034C11.5464 9.54034 11.6564 9.64034 11.7864 9.72034C11.9464 9.81034 12.1164 9.86034 12.3064 9.88034C12.3164 10.0603 12.3464 10.2303 12.4264 10.3803C12.5064 10.5403 12.6264 10.6803 12.7764 10.8003C12.6864 10.9503 12.6264 11.1103 12.6064 11.2903C12.5864 11.4703 12.6164 11.6503 12.6664 11.8303C12.5064 11.9103 12.3664 12.0103 12.2564 12.1403C12.1364 12.2803 12.0664 12.4503 12.0164 12.6303C11.8364 12.6103 11.6664 12.6203 11.5064 12.6703C11.3364 12.7203 11.1764 12.8203 11.0364 12.9503C10.8964 12.8403 10.7464 12.7503 10.5864 12.7003C10.4064 12.6503 10.2264 12.6503 10.0464 12.6803C9.99644 12.5103 9.91644 12.3603 9.79644 12.2303C9.67644 12.0903 9.52644 11.9903 9.35644 11.9103C9.40644 11.7403 9.41644 11.5703 9.39644 11.4003C9.36644 11.2203 9.29644 11.0503 9.19644 10.8903C9.32644 10.7703 9.43644 10.6403 9.50644 10.4803C9.58644 10.3003 9.61644 10.1003 9.60644 9.89034C9.81644 9.87034 10.0164 9.83034 10.1864 9.72034C10.3164 9.64034 10.4264 9.53034 10.5164 9.41034C10.6664 9.47034 10.8164 9.51034 10.9764 9.51034C11.1464 9.51034 11.3064 9.48034 11.4564 9.42034Z" fill="url(#paint39_radial_39_45)"/>
<path d="M21.9464 12.4503C22.0764 11.3803 20.7564 10.3103 18.8464 9.78034C20.4764 8.67034 21.3664 7.23034 20.8964 6.27034C20.4264 5.30034 18.7364 5.12034 16.8464 5.72034C17.6064 3.90034 17.5764 2.21034 16.6564 1.66034C15.8164 1.15034 14.4764 1.74034 13.2864 3.01034C12.9564 1.31034 12.1364 0.11034 11.1564 0.10034C10.0964 0.0703402 9.18644 1.43034 8.84644 3.32034C7.58644 1.87034 6.09644 1.16034 5.20644 1.72034C4.27644 2.30034 4.28644 4.06034 5.11644 5.91034C3.17644 5.29034 1.43644 5.49034 0.966438 6.49034C0.516438 7.46034 1.43644 8.89034 3.09644 9.98034C1.20644 10.5403 -0.0935625 11.6203 0.0564375 12.6903C0.206438 13.7603 1.75644 14.4503 3.74644 14.4703C2.46644 15.9703 1.96644 17.5803 2.67644 18.4003C3.38644 19.2203 5.06644 18.9503 6.73644 17.8803C6.47644 19.8303 6.94644 21.4603 7.97644 21.7603C9.01644 22.0603 10.2764 20.9203 11.0964 19.1103C11.9464 20.8903 13.2164 22.0003 14.2464 21.6903C15.2764 21.3803 15.7264 19.7303 15.4264 17.7703C17.1064 18.8003 18.7764 19.0403 19.4664 18.2203C20.1664 17.3903 19.6364 15.7703 18.3164 14.2903C20.2864 14.2303 21.8164 13.5203 21.9464 12.4503ZM11.4564 9.42034C11.5464 9.54034 11.6564 9.64034 11.7864 9.72034C11.9464 9.81034 12.1164 9.86034 12.3064 9.88034C12.3164 10.0603 12.3464 10.2303 12.4264 10.3803C12.5064 10.5403 12.6264 10.6803 12.7764 10.8003C12.6864 10.9503 12.6264 11.1103 12.6064 11.2903C12.5864 11.4703 12.6164 11.6503 12.6664 11.8303C12.5064 11.9103 12.3664 12.0103 12.2564 12.1403C12.1364 12.2803 12.0664 12.4503 12.0164 12.6303C11.8364 12.6103 11.6664 12.6203 11.5064 12.6703C11.3364 12.7203 11.1764 12.8203 11.0364 12.9503C10.8964 12.8403 10.7464 12.7503 10.5864 12.7003C10.4064 12.6503 10.2264 12.6503 10.0464 12.6803C9.99644 12.5103 9.91644 12.3603 9.79644 12.2303C9.67644 12.0903 9.52644 11.9903 9.35644 11.9103C9.40644 11.7403 9.41644 11.5703 9.39644 11.4003C9.36644 11.2203 9.29644 11.0503 9.19644 10.8903C9.32644 10.7703 9.43644 10.6403 9.50644 10.4803C9.58644 10.3003 9.61644 10.1003 9.60644 9.89034C9.81644 9.87034 10.0164 9.83034 10.1864 9.72034C10.3164 9.64034 10.4264 9.53034 10.5164 9.41034C10.6664 9.47034 10.8164 9.51034 10.9764 9.51034C11.1464 9.51034 11.3064 9.48034 11.4564 9.42034Z" fill="url(#paint40_radial_39_45)" fill-opacity="0.4"/>
<path d="M21.9464 12.4503C22.0764 11.3803 20.7564 10.3103 18.8464 9.78034C20.4764 8.67034 21.3664 7.23034 20.8964 6.27034C20.4264 5.30034 18.7364 5.12034 16.8464 5.72034C17.6064 3.90034 17.5764 2.21034 16.6564 1.66034C15.8164 1.15034 14.4764 1.74034 13.2864 3.01034C12.9564 1.31034 12.1364 0.11034 11.1564 0.10034C10.0964 0.0703402 9.18644 1.43034 8.84644 3.32034C7.58644 1.87034 6.09644 1.16034 5.20644 1.72034C4.27644 2.30034 4.28644 4.06034 5.11644 5.91034C3.17644 5.29034 1.43644 5.49034 0.966438 6.49034C0.516438 7.46034 1.43644 8.89034 3.09644 9.98034C1.20644 10.5403 -0.0935625 11.6203 0.0564375 12.6903C0.206438 13.7603 1.75644 14.4503 3.74644 14.4703C2.46644 15.9703 1.96644 17.5803 2.67644 18.4003C3.38644 19.2203 5.06644 18.9503 6.73644 17.8803C6.47644 19.8303 6.94644 21.4603 7.97644 21.7603C9.01644 22.0603 10.2764 20.9203 11.0964 19.1103C11.9464 20.8903 13.2164 22.0003 14.2464 21.6903C15.2764 21.3803 15.7264 19.7303 15.4264 17.7703C17.1064 18.8003 18.7764 19.0403 19.4664 18.2203C20.1664 17.3903 19.6364 15.7703 18.3164 14.2903C20.2864 14.2303 21.8164 13.5203 21.9464 12.4503ZM11.4564 9.42034C11.5464 9.54034 11.6564 9.64034 11.7864 9.72034C11.9464 9.81034 12.1164 9.86034 12.3064 9.88034C12.3164 10.0603 12.3464 10.2303 12.4264 10.3803C12.5064 10.5403 12.6264 10.6803 12.7764 10.8003C12.6864 10.9503 12.6264 11.1103 12.6064 11.2903C12.5864 11.4703 12.6164 11.6503 12.6664 11.8303C12.5064 11.9103 12.3664 12.0103 12.2564 12.1403C12.1364 12.2803 12.0664 12.4503 12.0164 12.6303C11.8364 12.6103 11.6664 12.6203 11.5064 12.6703C11.3364 12.7203 11.1764 12.8203 11.0364 12.9503C10.8964 12.8403 10.7464 12.7503 10.5864 12.7003C10.4064 12.6503 10.2264 12.6503 10.0464 12.6803C9.99644 12.5103 9.91644 12.3603 9.79644 12.2303C9.67644 12.0903 9.52644 11.9903 9.35644 11.9103C9.40644 11.7403 9.41644 11.5703 9.39644 11.4003C9.36644 11.2203 9.29644 11.0503 9.19644 10.8903C9.32644 10.7703 9.43644 10.6403 9.50644 10.4803C9.58644 10.3003 9.61644 10.1003 9.60644 9.89034C9.81644 9.87034 10.0164 9.83034 10.1864 9.72034C10.3164 9.64034 10.4264 9.53034 10.5164 9.41034C10.6664 9.47034 10.8164 9.51034 10.9764 9.51034C11.1464 9.51034 11.3064 9.48034 11.4564 9.42034Z" fill="url(#paint41_radial_39_45)" fill-opacity="0.7"/>
<path d="M21.9464 12.4503C22.0764 11.3803 20.7564 10.3103 18.8464 9.78034C20.4764 8.67034 21.3664 7.23034 20.8964 6.27034C20.4264 5.30034 18.7364 5.12034 16.8464 5.72034C17.6064 3.90034 17.5764 2.21034 16.6564 1.66034C15.8164 1.15034 14.4764 1.74034 13.2864 3.01034C12.9564 1.31034 12.1364 0.11034 11.1564 0.10034C10.0964 0.0703402 9.18644 1.43034 8.84644 3.32034C7.58644 1.87034 6.09644 1.16034 5.20644 1.72034C4.27644 2.30034 4.28644 4.06034 5.11644 5.91034C3.17644 5.29034 1.43644 5.49034 0.966438 6.49034C0.516438 7.46034 1.43644 8.89034 3.09644 9.98034C1.20644 10.5403 -0.0935625 11.6203 0.0564375 12.6903C0.206438 13.7603 1.75644 14.4503 3.74644 14.4703C2.46644 15.9703 1.96644 17.5803 2.67644 18.4003C3.38644 19.2203 5.06644 18.9503 6.73644 17.8803C6.47644 19.8303 6.94644 21.4603 7.97644 21.7603C9.01644 22.0603 10.2764 20.9203 11.0964 19.1103C11.9464 20.8903 13.2164 22.0003 14.2464 21.6903C15.2764 21.3803 15.7264 19.7303 15.4264 17.7703C17.1064 18.8003 18.7764 19.0403 19.4664 18.2203C20.1664 17.3903 19.6364 15.7703 18.3164 14.2903C20.2864 14.2303 21.8164 13.5203 21.9464 12.4503ZM11.4564 9.42034C11.5464 9.54034 11.6564 9.64034 11.7864 9.72034C11.9464 9.81034 12.1164 9.86034 12.3064 9.88034C12.3164 10.0603 12.3464 10.2303 12.4264 10.3803C12.5064 10.5403 12.6264 10.6803 12.7764 10.8003C12.6864 10.9503 12.6264 11.1103 12.6064 11.2903C12.5864 11.4703 12.6164 11.6503 12.6664 11.8303C12.5064 11.9103 12.3664 12.0103 12.2564 12.1403C12.1364 12.2803 12.0664 12.4503 12.0164 12.6303C11.8364 12.6103 11.6664 12.6203 11.5064 12.6703C11.3364 12.7203 11.1764 12.8203 11.0364 12.9503C10.8964 12.8403 10.7464 12.7503 10.5864 12.7003C10.4064 12.6503 10.2264 12.6503 10.0464 12.6803C9.99644 12.5103 9.91644 12.3603 9.79644 12.2303C9.67644 12.0903 9.52644 11.9903 9.35644 11.9103C9.40644 11.7403 9.41644 11.5703 9.39644 11.4003C9.36644 11.2203 9.29644 11.0503 9.19644 10.8903C9.32644 10.7703 9.43644 10.6403 9.50644 10.4803C9.58644 10.3003 9.61644 10.1003 9.60644 9.89034C9.81644 9.87034 10.0164 9.83034 10.1864 9.72034C10.3164 9.64034 10.4264 9.53034 10.5164 9.41034C10.6664 9.47034 10.8164 9.51034 10.9764 9.51034C11.1464 9.51034 11.3064 9.48034 11.4564 9.42034Z" fill="url(#paint42_radial_39_45)" fill-opacity="0.7"/>
<path d="M21.9464 12.4503C22.0764 11.3803 20.7564 10.3103 18.8464 9.78034C20.4764 8.67034 21.3664 7.23034 20.8964 6.27034C20.4264 5.30034 18.7364 5.12034 16.8464 5.72034C17.6064 3.90034 17.5764 2.21034 16.6564 1.66034C15.8164 1.15034 14.4764 1.74034 13.2864 3.01034C12.9564 1.31034 12.1364 0.11034 11.1564 0.10034C10.0964 0.0703402 9.18644 1.43034 8.84644 3.32034C7.58644 1.87034 6.09644 1.16034 5.20644 1.72034C4.27644 2.30034 4.28644 4.06034 5.11644 5.91034C3.17644 5.29034 1.43644 5.49034 0.966438 6.49034C0.516438 7.46034 1.43644 8.89034 3.09644 9.98034C1.20644 10.5403 -0.0935625 11.6203 0.0564375 12.6903C0.206438 13.7603 1.75644 14.4503 3.74644 14.4703C2.46644 15.9703 1.96644 17.5803 2.67644 18.4003C3.38644 19.2203 5.06644 18.9503 6.73644 17.8803C6.47644 19.8303 6.94644 21.4603 7.97644 21.7603C9.01644 22.0603 10.2764 20.9203 11.0964 19.1103C11.9464 20.8903 13.2164 22.0003 14.2464 21.6903C15.2764 21.3803 15.7264 19.7303 15.4264 17.7703C17.1064 18.8003 18.7764 19.0403 19.4664 18.2203C20.1664 17.3903 19.6364 15.7703 18.3164 14.2903C20.2864 14.2303 21.8164 13.5203 21.9464 12.4503ZM11.4564 9.42034C11.5464 9.54034 11.6564 9.64034 11.7864 9.72034C11.9464 9.81034 12.1164 9.86034 12.3064 9.88034C12.3164 10.0603 12.3464 10.2303 12.4264 10.3803C12.5064 10.5403 12.6264 10.6803 12.7764 10.8003C12.6864 10.9503 12.6264 11.1103 12.6064 11.2903C12.5864 11.4703 12.6164 11.6503 12.6664 11.8303C12.5064 11.9103 12.3664 12.0103 12.2564 12.1403C12.1364 12.2803 12.0664 12.4503 12.0164 12.6303C11.8364 12.6103 11.6664 12.6203 11.5064 12.6703C11.3364 12.7203 11.1764 12.8203 11.0364 12.9503C10.8964 12.8403 10.7464 12.7503 10.5864 12.7003C10.4064 12.6503 10.2264 12.6503 10.0464 12.6803C9.99644 12.5103 9.91644 12.3603 9.79644 12.2303C9.67644 12.0903 9.52644 11.9903 9.35644 11.9103C9.40644 11.7403 9.41644 11.5703 9.39644 11.4003C9.36644 11.2203 9.29644 11.0503 9.19644 10.8903C9.32644 10.7703 9.43644 10.6403 9.50644 10.4803C9.58644 10.3003 9.61644 10.1003 9.60644 9.89034C9.81644 9.87034 10.0164 9.83034 10.1864 9.72034C10.3164 9.64034 10.4264 9.53034 10.5164 9.41034C10.6664 9.47034 10.8164 9.51034 10.9764 9.51034C11.1464 9.51034 11.3064 9.48034 11.4564 9.42034Z" fill="url(#paint43_radial_39_45)" fill-opacity="0.7"/>
<path d="M21.9464 12.4503C22.0764 11.3803 20.7564 10.3103 18.8464 9.78034C20.4764 8.67034 21.3664 7.23034 20.8964 6.27034C20.4264 5.30034 18.7364 5.12034 16.8464 5.72034C17.6064 3.90034 17.5764 2.21034 16.6564 1.66034C15.8164 1.15034 14.4764 1.74034 13.2864 3.01034C12.9564 1.31034 12.1364 0.11034 11.1564 0.10034C10.0964 0.0703402 9.18644 1.43034 8.84644 3.32034C7.58644 1.87034 6.09644 1.16034 5.20644 1.72034C4.27644 2.30034 4.28644 4.06034 5.11644 5.91034C3.17644 5.29034 1.43644 5.49034 0.966438 6.49034C0.516438 7.46034 1.43644 8.89034 3.09644 9.98034C1.20644 10.5403 -0.0935625 11.6203 0.0564375 12.6903C0.206438 13.7603 1.75644 14.4503 3.74644 14.4703C2.46644 15.9703 1.96644 17.5803 2.67644 18.4003C3.38644 19.2203 5.06644 18.9503 6.73644 17.8803C6.47644 19.8303 6.94644 21.4603 7.97644 21.7603C9.01644 22.0603 10.2764 20.9203 11.0964 19.1103C11.9464 20.8903 13.2164 22.0003 14.2464 21.6903C15.2764 21.3803 15.7264 19.7303 15.4264 17.7703C17.1064 18.8003 18.7764 19.0403 19.4664 18.2203C20.1664 17.3903 19.6364 15.7703 18.3164 14.2903C20.2864 14.2303 21.8164 13.5203 21.9464 12.4503ZM11.4564 9.42034C11.5464 9.54034 11.6564 9.64034 11.7864 9.72034C11.9464 9.81034 12.1164 9.86034 12.3064 9.88034C12.3164 10.0603 12.3464 10.2303 12.4264 10.3803C12.5064 10.5403 12.6264 10.6803 12.7764 10.8003C12.6864 10.9503 12.6264 11.1103 12.6064 11.2903C12.5864 11.4703 12.6164 11.6503 12.6664 11.8303C12.5064 11.9103 12.3664 12.0103 12.2564 12.1403C12.1364 12.2803 12.0664 12.4503 12.0164 12.6303C11.8364 12.6103 11.6664 12.6203 11.5064 12.6703C11.3364 12.7203 11.1764 12.8203 11.0364 12.9503C10.8964 12.8403 10.7464 12.7503 10.5864 12.7003C10.4064 12.6503 10.2264 12.6503 10.0464 12.6803C9.99644 12.5103 9.91644 12.3603 9.79644 12.2303C9.67644 12.0903 9.52644 11.9903 9.35644 11.9103C9.40644 11.7403 9.41644 11.5703 9.39644 11.4003C9.36644 11.2203 9.29644 11.0503 9.19644 10.8903C9.32644 10.7703 9.43644 10.6403 9.50644 10.4803C9.58644 10.3003 9.61644 10.1003 9.60644 9.89034C9.81644 9.87034 10.0164 9.83034 10.1864 9.72034C10.3164 9.64034 10.4264 9.53034 10.5164 9.41034C10.6664 9.47034 10.8164 9.51034 10.9764 9.51034C11.1464 9.51034 11.3064 9.48034 11.4564 9.42034Z" fill="url(#paint44_radial_39_45)" fill-opacity="0.7"/>
<path d="M21.9464 12.4503C22.0764 11.3803 20.7564 10.3103 18.8464 9.78034C20.4764 8.67034 21.3664 7.23034 20.8964 6.27034C20.4264 5.30034 18.7364 5.12034 16.8464 5.72034C17.6064 3.90034 17.5764 2.21034 16.6564 1.66034C15.8164 1.15034 14.4764 1.74034 13.2864 3.01034C12.9564 1.31034 12.1364 0.11034 11.1564 0.10034C10.0964 0.0703402 9.18644 1.43034 8.84644 3.32034C7.58644 1.87034 6.09644 1.16034 5.20644 1.72034C4.27644 2.30034 4.28644 4.06034 5.11644 5.91034C3.17644 5.29034 1.43644 5.49034 0.966438 6.49034C0.516438 7.46034 1.43644 8.89034 3.09644 9.98034C1.20644 10.5403 -0.0935625 11.6203 0.0564375 12.6903C0.206438 13.7603 1.75644 14.4503 3.74644 14.4703C2.46644 15.9703 1.96644 17.5803 2.67644 18.4003C3.38644 19.2203 5.06644 18.9503 6.73644 17.8803C6.47644 19.8303 6.94644 21.4603 7.97644 21.7603C9.01644 22.0603 10.2764 20.9203 11.0964 19.1103C11.9464 20.8903 13.2164 22.0003 14.2464 21.6903C15.2764 21.3803 15.7264 19.7303 15.4264 17.7703C17.1064 18.8003 18.7764 19.0403 19.4664 18.2203C20.1664 17.3903 19.6364 15.7703 18.3164 14.2903C20.2864 14.2303 21.8164 13.5203 21.9464 12.4503ZM11.4564 9.42034C11.5464 9.54034 11.6564 9.64034 11.7864 9.72034C11.9464 9.81034 12.1164 9.86034 12.3064 9.88034C12.3164 10.0603 12.3464 10.2303 12.4264 10.3803C12.5064 10.5403 12.6264 10.6803 12.7764 10.8003C12.6864 10.9503 12.6264 11.1103 12.6064 11.2903C12.5864 11.4703 12.6164 11.6503 12.6664 11.8303C12.5064 11.9103 12.3664 12.0103 12.2564 12.1403C12.1364 12.2803 12.0664 12.4503 12.0164 12.6303C11.8364 12.6103 11.6664 12.6203 11.5064 12.6703C11.3364 12.7203 11.1764 12.8203 11.0364 12.9503C10.8964 12.8403 10.7464 12.7503 10.5864 12.7003C10.4064 12.6503 10.2264 12.6503 10.0464 12.6803C9.99644 12.5103 9.91644 12.3603 9.79644 12.2303C9.67644 12.0903 9.52644 11.9903 9.35644 11.9103C9.40644 11.7403 9.41644 11.5703 9.39644 11.4003C9.36644 11.2203 9.29644 11.0503 9.19644 10.8903C9.32644 10.7703 9.43644 10.6403 9.50644 10.4803C9.58644 10.3003 9.61644 10.1003 9.60644 9.89034C9.81644 9.87034 10.0164 9.83034 10.1864 9.72034C10.3164 9.64034 10.4264 9.53034 10.5164 9.41034C10.6664 9.47034 10.8164 9.51034 10.9764 9.51034C11.1464 9.51034 11.3064 9.48034 11.4564 9.42034Z" fill="url(#paint45_radial_39_45)" fill-opacity="0.7"/>
<path d="M21.9464 12.4503C22.0764 11.3803 20.7564 10.3103 18.8464 9.78034C20.4764 8.67034 21.3664 7.23034 20.8964 6.27034C20.4264 5.30034 18.7364 5.12034 16.8464 5.72034C17.6064 3.90034 17.5764 2.21034 16.6564 1.66034C15.8164 1.15034 14.4764 1.74034 13.2864 3.01034C12.9564 1.31034 12.1364 0.11034 11.1564 0.10034C10.0964 0.0703402 9.18644 1.43034 8.84644 3.32034C7.58644 1.87034 6.09644 1.16034 5.20644 1.72034C4.27644 2.30034 4.28644 4.06034 5.11644 5.91034C3.17644 5.29034 1.43644 5.49034 0.966438 6.49034C0.516438 7.46034 1.43644 8.89034 3.09644 9.98034C1.20644 10.5403 -0.0935625 11.6203 0.0564375 12.6903C0.206438 13.7603 1.75644 14.4503 3.74644 14.4703C2.46644 15.9703 1.96644 17.5803 2.67644 18.4003C3.38644 19.2203 5.06644 18.9503 6.73644 17.8803C6.47644 19.8303 6.94644 21.4603 7.97644 21.7603C9.01644 22.0603 10.2764 20.9203 11.0964 19.1103C11.9464 20.8903 13.2164 22.0003 14.2464 21.6903C15.2764 21.3803 15.7264 19.7303 15.4264 17.7703C17.1064 18.8003 18.7764 19.0403 19.4664 18.2203C20.1664 17.3903 19.6364 15.7703 18.3164 14.2903C20.2864 14.2303 21.8164 13.5203 21.9464 12.4503ZM11.4564 9.42034C11.5464 9.54034 11.6564 9.64034 11.7864 9.72034C11.9464 9.81034 12.1164 9.86034 12.3064 9.88034C12.3164 10.0603 12.3464 10.2303 12.4264 10.3803C12.5064 10.5403 12.6264 10.6803 12.7764 10.8003C12.6864 10.9503 12.6264 11.1103 12.6064 11.2903C12.5864 11.4703 12.6164 11.6503 12.6664 11.8303C12.5064 11.9103 12.3664 12.0103 12.2564 12.1403C12.1364 12.2803 12.0664 12.4503 12.0164 12.6303C11.8364 12.6103 11.6664 12.6203 11.5064 12.6703C11.3364 12.7203 11.1764 12.8203 11.0364 12.9503C10.8964 12.8403 10.7464 12.7503 10.5864 12.7003C10.4064 12.6503 10.2264 12.6503 10.0464 12.6803C9.99644 12.5103 9.91644 12.3603 9.79644 12.2303C9.67644 12.0903 9.52644 11.9903 9.35644 11.9103C9.40644 11.7403 9.41644 11.5703 9.39644 11.4003C9.36644 11.2203 9.29644 11.0503 9.19644 10.8903C9.32644 10.7703 9.43644 10.6403 9.50644 10.4803C9.58644 10.3003 9.61644 10.1003 9.60644 9.89034C9.81644 9.87034 10.0164 9.83034 10.1864 9.72034C10.3164 9.64034 10.4264 9.53034 10.5164 9.41034C10.6664 9.47034 10.8164 9.51034 10.9764 9.51034C11.1464 9.51034 11.3064 9.48034 11.4564 9.42034Z" fill="url(#paint46_radial_39_45)" fill-opacity="0.7"/>
<path d="M21.9464 12.4503C22.0764 11.3803 20.7564 10.3103 18.8464 9.78034C20.4764 8.67034 21.3664 7.23034 20.8964 6.27034C20.4264 5.30034 18.7364 5.12034 16.8464 5.72034C17.6064 3.90034 17.5764 2.21034 16.6564 1.66034C15.8164 1.15034 14.4764 1.74034 13.2864 3.01034C12.9564 1.31034 12.1364 0.11034 11.1564 0.10034C10.0964 0.0703402 9.18644 1.43034 8.84644 3.32034C7.58644 1.87034 6.09644 1.16034 5.20644 1.72034C4.27644 2.30034 4.28644 4.06034 5.11644 5.91034C3.17644 5.29034 1.43644 5.49034 0.966438 6.49034C0.516438 7.46034 1.43644 8.89034 3.09644 9.98034C1.20644 10.5403 -0.0935625 11.6203 0.0564375 12.6903C0.206438 13.7603 1.75644 14.4503 3.74644 14.4703C2.46644 15.9703 1.96644 17.5803 2.67644 18.4003C3.38644 19.2203 5.06644 18.9503 6.73644 17.8803C6.47644 19.8303 6.94644 21.4603 7.97644 21.7603C9.01644 22.0603 10.2764 20.9203 11.0964 19.1103C11.9464 20.8903 13.2164 22.0003 14.2464 21.6903C15.2764 21.3803 15.7264 19.7303 15.4264 17.7703C17.1064 18.8003 18.7764 19.0403 19.4664 18.2203C20.1664 17.3903 19.6364 15.7703 18.3164 14.2903C20.2864 14.2303 21.8164 13.5203 21.9464 12.4503ZM11.4564 9.42034C11.5464 9.54034 11.6564 9.64034 11.7864 9.72034C11.9464 9.81034 12.1164 9.86034 12.3064 9.88034C12.3164 10.0603 12.3464 10.2303 12.4264 10.3803C12.5064 10.5403 12.6264 10.6803 12.7764 10.8003C12.6864 10.9503 12.6264 11.1103 12.6064 11.2903C12.5864 11.4703 12.6164 11.6503 12.6664 11.8303C12.5064 11.9103 12.3664 12.0103 12.2564 12.1403C12.1364 12.2803 12.0664 12.4503 12.0164 12.6303C11.8364 12.6103 11.6664 12.6203 11.5064 12.6703C11.3364 12.7203 11.1764 12.8203 11.0364 12.9503C10.8964 12.8403 10.7464 12.7503 10.5864 12.7003C10.4064 12.6503 10.2264 12.6503 10.0464 12.6803C9.99644 12.5103 9.91644 12.3603 9.79644 12.2303C9.67644 12.0903 9.52644 11.9903 9.35644 11.9103C9.40644 11.7403 9.41644 11.5703 9.39644 11.4003C9.36644 11.2203 9.29644 11.0503 9.19644 10.8903C9.32644 10.7703 9.43644 10.6403 9.50644 10.4803C9.58644 10.3003 9.61644 10.1003 9.60644 9.89034C9.81644 9.87034 10.0164 9.83034 10.1864 9.72034C10.3164 9.64034 10.4264 9.53034 10.5164 9.41034C10.6664 9.47034 10.8164 9.51034 10.9764 9.51034C11.1464 9.51034 11.3064 9.48034 11.4564 9.42034Z" fill="url(#paint47_radial_39_45)" fill-opacity="0.7"/>
<path d="M21.9464 12.4503C22.0764 11.3803 20.7564 10.3103 18.8464 9.78034C20.4764 8.67034 21.3664 7.23034 20.8964 6.27034C20.4264 5.30034 18.7364 5.12034 16.8464 5.72034C17.6064 3.90034 17.5764 2.21034 16.6564 1.66034C15.8164 1.15034 14.4764 1.74034 13.2864 3.01034C12.9564 1.31034 12.1364 0.11034 11.1564 0.10034C10.0964 0.0703402 9.18644 1.43034 8.84644 3.32034C7.58644 1.87034 6.09644 1.16034 5.20644 1.72034C4.27644 2.30034 4.28644 4.06034 5.11644 5.91034C3.17644 5.29034 1.43644 5.49034 0.966438 6.49034C0.516438 7.46034 1.43644 8.89034 3.09644 9.98034C1.20644 10.5403 -0.0935625 11.6203 0.0564375 12.6903C0.206438 13.7603 1.75644 14.4503 3.74644 14.4703C2.46644 15.9703 1.96644 17.5803 2.67644 18.4003C3.38644 19.2203 5.06644 18.9503 6.73644 17.8803C6.47644 19.8303 6.94644 21.4603 7.97644 21.7603C9.01644 22.0603 10.2764 20.9203 11.0964 19.1103C11.9464 20.8903 13.2164 22.0003 14.2464 21.6903C15.2764 21.3803 15.7264 19.7303 15.4264 17.7703C17.1064 18.8003 18.7764 19.0403 19.4664 18.2203C20.1664 17.3903 19.6364 15.7703 18.3164 14.2903C20.2864 14.2303 21.8164 13.5203 21.9464 12.4503ZM11.4564 9.42034C11.5464 9.54034 11.6564 9.64034 11.7864 9.72034C11.9464 9.81034 12.1164 9.86034 12.3064 9.88034C12.3164 10.0603 12.3464 10.2303 12.4264 10.3803C12.5064 10.5403 12.6264 10.6803 12.7764 10.8003C12.6864 10.9503 12.6264 11.1103 12.6064 11.2903C12.5864 11.4703 12.6164 11.6503 12.6664 11.8303C12.5064 11.9103 12.3664 12.0103 12.2564 12.1403C12.1364 12.2803 12.0664 12.4503 12.0164 12.6303C11.8364 12.6103 11.6664 12.6203 11.5064 12.6703C11.3364 12.7203 11.1764 12.8203 11.0364 12.9503C10.8964 12.8403 10.7464 12.7503 10.5864 12.7003C10.4064 12.6503 10.2264 12.6503 10.0464 12.6803C9.99644 12.5103 9.91644 12.3603 9.79644 12.2303C9.67644 12.0903 9.52644 11.9903 9.35644 11.9103C9.40644 11.7403 9.41644 11.5703 9.39644 11.4003C9.36644 11.2203 9.29644 11.0503 9.19644 10.8903C9.32644 10.7703 9.43644 10.6403 9.50644 10.4803C9.58644 10.3003 9.61644 10.1003 9.60644 9.89034C9.81644 9.87034 10.0164 9.83034 10.1864 9.72034C10.3164 9.64034 10.4264 9.53034 10.5164 9.41034C10.6664 9.47034 10.8164 9.51034 10.9764 9.51034C11.1464 9.51034 11.3064 9.48034 11.4564 9.42034Z" fill="url(#paint48_radial_39_45)" fill-opacity="0.7"/>
<path d="M21.9464 12.4503C22.0764 11.3803 20.7564 10.3103 18.8464 9.78034C20.4764 8.67034 21.3664 7.23034 20.8964 6.27034C20.4264 5.30034 18.7364 5.12034 16.8464 5.72034C17.6064 3.90034 17.5764 2.21034 16.6564 1.66034C15.8164 1.15034 14.4764 1.74034 13.2864 3.01034C12.9564 1.31034 12.1364 0.11034 11.1564 0.10034C10.0964 0.0703402 9.18644 1.43034 8.84644 3.32034C7.58644 1.87034 6.09644 1.16034 5.20644 1.72034C4.27644 2.30034 4.28644 4.06034 5.11644 5.91034C3.17644 5.29034 1.43644 5.49034 0.966438 6.49034C0.516438 7.46034 1.43644 8.89034 3.09644 9.98034C1.20644 10.5403 -0.0935625 11.6203 0.0564375 12.6903C0.206438 13.7603 1.75644 14.4503 3.74644 14.4703C2.46644 15.9703 1.96644 17.5803 2.67644 18.4003C3.38644 19.2203 5.06644 18.9503 6.73644 17.8803C6.47644 19.8303 6.94644 21.4603 7.97644 21.7603C9.01644 22.0603 10.2764 20.9203 11.0964 19.1103C11.9464 20.8903 13.2164 22.0003 14.2464 21.6903C15.2764 21.3803 15.7264 19.7303 15.4264 17.7703C17.1064 18.8003 18.7764 19.0403 19.4664 18.2203C20.1664 17.3903 19.6364 15.7703 18.3164 14.2903C20.2864 14.2303 21.8164 13.5203 21.9464 12.4503ZM11.4564 9.42034C11.5464 9.54034 11.6564 9.64034 11.7864 9.72034C11.9464 9.81034 12.1164 9.86034 12.3064 9.88034C12.3164 10.0603 12.3464 10.2303 12.4264 10.3803C12.5064 10.5403 12.6264 10.6803 12.7764 10.8003C12.6864 10.9503 12.6264 11.1103 12.6064 11.2903C12.5864 11.4703 12.6164 11.6503 12.6664 11.8303C12.5064 11.9103 12.3664 12.0103 12.2564 12.1403C12.1364 12.2803 12.0664 12.4503 12.0164 12.6303C11.8364 12.6103 11.6664 12.6203 11.5064 12.6703C11.3364 12.7203 11.1764 12.8203 11.0364 12.9503C10.8964 12.8403 10.7464 12.7503 10.5864 12.7003C10.4064 12.6503 10.2264 12.6503 10.0464 12.6803C9.99644 12.5103 9.91644 12.3603 9.79644 12.2303C9.67644 12.0903 9.52644 11.9903 9.35644 11.9103C9.40644 11.7403 9.41644 11.5703 9.39644 11.4003C9.36644 11.2203 9.29644 11.0503 9.19644 10.8903C9.32644 10.7703 9.43644 10.6403 9.50644 10.4803C9.58644 10.3003 9.61644 10.1003 9.60644 9.89034C9.81644 9.87034 10.0164 9.83034 10.1864 9.72034C10.3164 9.64034 10.4264 9.53034 10.5164 9.41034C10.6664 9.47034 10.8164 9.51034 10.9764 9.51034C11.1464 9.51034 11.3064 9.48034 11.4564 9.42034Z" fill="url(#paint49_radial_39_45)" fill-opacity="0.7"/>
<path d="M21.9464 12.4503C22.0764 11.3803 20.7564 10.3103 18.8464 9.78034C20.4764 8.67034 21.3664 7.23034 20.8964 6.27034C20.4264 5.30034 18.7364 5.12034 16.8464 5.72034C17.6064 3.90034 17.5764 2.21034 16.6564 1.66034C15.8164 1.15034 14.4764 1.74034 13.2864 3.01034C12.9564 1.31034 12.1364 0.11034 11.1564 0.10034C10.0964 0.0703402 9.18644 1.43034 8.84644 3.32034C7.58644 1.87034 6.09644 1.16034 5.20644 1.72034C4.27644 2.30034 4.28644 4.06034 5.11644 5.91034C3.17644 5.29034 1.43644 5.49034 0.966438 6.49034C0.516438 7.46034 1.43644 8.89034 3.09644 9.98034C1.20644 10.5403 -0.0935625 11.6203 0.0564375 12.6903C0.206438 13.7603 1.75644 14.4503 3.74644 14.4703C2.46644 15.9703 1.96644 17.5803 2.67644 18.4003C3.38644 19.2203 5.06644 18.9503 6.73644 17.8803C6.47644 19.8303 6.94644 21.4603 7.97644 21.7603C9.01644 22.0603 10.2764 20.9203 11.0964 19.1103C11.9464 20.8903 13.2164 22.0003 14.2464 21.6903C15.2764 21.3803 15.7264 19.7303 15.4264 17.7703C17.1064 18.8003 18.7764 19.0403 19.4664 18.2203C20.1664 17.3903 19.6364 15.7703 18.3164 14.2903C20.2864 14.2303 21.8164 13.5203 21.9464 12.4503ZM11.4564 9.42034C11.5464 9.54034 11.6564 9.64034 11.7864 9.72034C11.9464 9.81034 12.1164 9.86034 12.3064 9.88034C12.3164 10.0603 12.3464 10.2303 12.4264 10.3803C12.5064 10.5403 12.6264 10.6803 12.7764 10.8003C12.6864 10.9503 12.6264 11.1103 12.6064 11.2903C12.5864 11.4703 12.6164 11.6503 12.6664 11.8303C12.5064 11.9103 12.3664 12.0103 12.2564 12.1403C12.1364 12.2803 12.0664 12.4503 12.0164 12.6303C11.8364 12.6103 11.6664 12.6203 11.5064 12.6703C11.3364 12.7203 11.1764 12.8203 11.0364 12.9503C10.8964 12.8403 10.7464 12.7503 10.5864 12.7003C10.4064 12.6503 10.2264 12.6503 10.0464 12.6803C9.99644 12.5103 9.91644 12.3603 9.79644 12.2303C9.67644 12.0903 9.52644 11.9903 9.35644 11.9103C9.40644 11.7403 9.41644 11.5703 9.39644 11.4003C9.36644 11.2203 9.29644 11.0503 9.19644 10.8903C9.32644 10.7703 9.43644 10.6403 9.50644 10.4803C9.58644 10.3003 9.61644 10.1003 9.60644 9.89034C9.81644 9.87034 10.0164 9.83034 10.1864 9.72034C10.3164 9.64034 10.4264 9.53034 10.5164 9.41034C10.6664 9.47034 10.8164 9.51034 10.9764 9.51034C11.1464 9.51034 11.3064 9.48034 11.4564 9.42034Z" fill="url(#paint50_radial_39_45)" fill-opacity="0.7"/>
<path d="M21.9464 12.4503C22.0764 11.3803 20.7564 10.3103 18.8464 9.78034C20.4764 8.67034 21.3664 7.23034 20.8964 6.27034C20.4264 5.30034 18.7364 5.12034 16.8464 5.72034C17.6064 3.90034 17.5764 2.21034 16.6564 1.66034C15.8164 1.15034 14.4764 1.74034 13.2864 3.01034C12.9564 1.31034 12.1364 0.11034 11.1564 0.10034C10.0964 0.0703402 9.18644 1.43034 8.84644 3.32034C7.58644 1.87034 6.09644 1.16034 5.20644 1.72034C4.27644 2.30034 4.28644 4.06034 5.11644 5.91034C3.17644 5.29034 1.43644 5.49034 0.966438 6.49034C0.516438 7.46034 1.43644 8.89034 3.09644 9.98034C1.20644 10.5403 -0.0935625 11.6203 0.0564375 12.6903C0.206438 13.7603 1.75644 14.4503 3.74644 14.4703C2.46644 15.9703 1.96644 17.5803 2.67644 18.4003C3.38644 19.2203 5.06644 18.9503 6.73644 17.8803C6.47644 19.8303 6.94644 21.4603 7.97644 21.7603C9.01644 22.0603 10.2764 20.9203 11.0964 19.1103C11.9464 20.8903 13.2164 22.0003 14.2464 21.6903C15.2764 21.3803 15.7264 19.7303 15.4264 17.7703C17.1064 18.8003 18.7764 19.0403 19.4664 18.2203C20.1664 17.3903 19.6364 15.7703 18.3164 14.2903C20.2864 14.2303 21.8164 13.5203 21.9464 12.4503ZM11.4564 9.42034C11.5464 9.54034 11.6564 9.64034 11.7864 9.72034C11.9464 9.81034 12.1164 9.86034 12.3064 9.88034C12.3164 10.0603 12.3464 10.2303 12.4264 10.3803C12.5064 10.5403 12.6264 10.6803 12.7764 10.8003C12.6864 10.9503 12.6264 11.1103 12.6064 11.2903C12.5864 11.4703 12.6164 11.6503 12.6664 11.8303C12.5064 11.9103 12.3664 12.0103 12.2564 12.1403C12.1364 12.2803 12.0664 12.4503 12.0164 12.6303C11.8364 12.6103 11.6664 12.6203 11.5064 12.6703C11.3364 12.7203 11.1764 12.8203 11.0364 12.9503C10.8964 12.8403 10.7464 12.7503 10.5864 12.7003C10.4064 12.6503 10.2264 12.6503 10.0464 12.6803C9.99644 12.5103 9.91644 12.3603 9.79644 12.2303C9.67644 12.0903 9.52644 11.9903 9.35644 11.9103C9.40644 11.7403 9.41644 11.5703 9.39644 11.4003C9.36644 11.2203 9.29644 11.0503 9.19644 10.8903C9.32644 10.7703 9.43644 10.6403 9.50644 10.4803C9.58644 10.3003 9.61644 10.1003 9.60644 9.89034C9.81644 9.87034 10.0164 9.83034 10.1864 9.72034C10.3164 9.64034 10.4264 9.53034 10.5164 9.41034C10.6664 9.47034 10.8164 9.51034 10.9764 9.51034C11.1464 9.51034 11.3064 9.48034 11.4564 9.42034Z" fill="url(#paint51_radial_39_45)" fill-opacity="0.7"/>
<path d="M21.9464 12.4503C22.0764 11.3803 20.7564 10.3103 18.8464 9.78034C20.4764 8.67034 21.3664 7.23034 20.8964 6.27034C20.4264 5.30034 18.7364 5.12034 16.8464 5.72034C17.6064 3.90034 17.5764 2.21034 16.6564 1.66034C15.8164 1.15034 14.4764 1.74034 13.2864 3.01034C12.9564 1.31034 12.1364 0.11034 11.1564 0.10034C10.0964 0.0703402 9.18644 1.43034 8.84644 3.32034C7.58644 1.87034 6.09644 1.16034 5.20644 1.72034C4.27644 2.30034 4.28644 4.06034 5.11644 5.91034C3.17644 5.29034 1.43644 5.49034 0.966438 6.49034C0.516438 7.46034 1.43644 8.89034 3.09644 9.98034C1.20644 10.5403 -0.0935625 11.6203 0.0564375 12.6903C0.206438 13.7603 1.75644 14.4503 3.74644 14.4703C2.46644 15.9703 1.96644 17.5803 2.67644 18.4003C3.38644 19.2203 5.06644 18.9503 6.73644 17.8803C6.47644 19.8303 6.94644 21.4603 7.97644 21.7603C9.01644 22.0603 10.2764 20.9203 11.0964 19.1103C11.9464 20.8903 13.2164 22.0003 14.2464 21.6903C15.2764 21.3803 15.7264 19.7303 15.4264 17.7703C17.1064 18.8003 18.7764 19.0403 19.4664 18.2203C20.1664 17.3903 19.6364 15.7703 18.3164 14.2903C20.2864 14.2303 21.8164 13.5203 21.9464 12.4503ZM11.4564 9.42034C11.5464 9.54034 11.6564 9.64034 11.7864 9.72034C11.9464 9.81034 12.1164 9.86034 12.3064 9.88034C12.3164 10.0603 12.3464 10.2303 12.4264 10.3803C12.5064 10.5403 12.6264 10.6803 12.7764 10.8003C12.6864 10.9503 12.6264 11.1103 12.6064 11.2903C12.5864 11.4703 12.6164 11.6503 12.6664 11.8303C12.5064 11.9103 12.3664 12.0103 12.2564 12.1403C12.1364 12.2803 12.0664 12.4503 12.0164 12.6303C11.8364 12.6103 11.6664 12.6203 11.5064 12.6703C11.3364 12.7203 11.1764 12.8203 11.0364 12.9503C10.8964 12.8403 10.7464 12.7503 10.5864 12.7003C10.4064 12.6503 10.2264 12.6503 10.0464 12.6803C9.99644 12.5103 9.91644 12.3603 9.79644 12.2303C9.67644 12.0903 9.52644 11.9903 9.35644 11.9103C9.40644 11.7403 9.41644 11.5703 9.39644 11.4003C9.36644 11.2203 9.29644 11.0503 9.19644 10.8903C9.32644 10.7703 9.43644 10.6403 9.50644 10.4803C9.58644 10.3003 9.61644 10.1003 9.60644 9.89034C9.81644 9.87034 10.0164 9.83034 10.1864 9.72034C10.3164 9.64034 10.4264 9.53034 10.5164 9.41034C10.6664 9.47034 10.8164 9.51034 10.9764 9.51034C11.1464 9.51034 11.3064 9.48034 11.4564 9.42034Z" fill="url(#paint52_radial_39_45)" fill-opacity="0.7"/>
<path d="M21.9464 12.4503C22.0764 11.3803 20.7564 10.3103 18.8464 9.78034C20.4764 8.67034 21.3664 7.23034 20.8964 6.27034C20.4264 5.30034 18.7364 5.12034 16.8464 5.72034C17.6064 3.90034 17.5764 2.21034 16.6564 1.66034C15.8164 1.15034 14.4764 1.74034 13.2864 3.01034C12.9564 1.31034 12.1364 0.11034 11.1564 0.10034C10.0964 0.0703402 9.18644 1.43034 8.84644 3.32034C7.58644 1.87034 6.09644 1.16034 5.20644 1.72034C4.27644 2.30034 4.28644 4.06034 5.11644 5.91034C3.17644 5.29034 1.43644 5.49034 0.966438 6.49034C0.516438 7.46034 1.43644 8.89034 3.09644 9.98034C1.20644 10.5403 -0.0935625 11.6203 0.0564375 12.6903C0.206438 13.7603 1.75644 14.4503 3.74644 14.4703C2.46644 15.9703 1.96644 17.5803 2.67644 18.4003C3.38644 19.2203 5.06644 18.9503 6.73644 17.8803C6.47644 19.8303 6.94644 21.4603 7.97644 21.7603C9.01644 22.0603 10.2764 20.9203 11.0964 19.1103C11.9464 20.8903 13.2164 22.0003 14.2464 21.6903C15.2764 21.3803 15.7264 19.7303 15.4264 17.7703C17.1064 18.8003 18.7764 19.0403 19.4664 18.2203C20.1664 17.3903 19.6364 15.7703 18.3164 14.2903C20.2864 14.2303 21.8164 13.5203 21.9464 12.4503ZM11.4564 9.42034C11.5464 9.54034 11.6564 9.64034 11.7864 9.72034C11.9464 9.81034 12.1164 9.86034 12.3064 9.88034C12.3164 10.0603 12.3464 10.2303 12.4264 10.3803C12.5064 10.5403 12.6264 10.6803 12.7764 10.8003C12.6864 10.9503 12.6264 11.1103 12.6064 11.2903C12.5864 11.4703 12.6164 11.6503 12.6664 11.8303C12.5064 11.9103 12.3664 12.0103 12.2564 12.1403C12.1364 12.2803 12.0664 12.4503 12.0164 12.6303C11.8364 12.6103 11.6664 12.6203 11.5064 12.6703C11.3364 12.7203 11.1764 12.8203 11.0364 12.9503C10.8964 12.8403 10.7464 12.7503 10.5864 12.7003C10.4064 12.6503 10.2264 12.6503 10.0464 12.6803C9.99644 12.5103 9.91644 12.3603 9.79644 12.2303C9.67644 12.0903 9.52644 11.9903 9.35644 11.9103C9.40644 11.7403 9.41644 11.5703 9.39644 11.4003C9.36644 11.2203 9.29644 11.0503 9.19644 10.8903C9.32644 10.7703 9.43644 10.6403 9.50644 10.4803C9.58644 10.3003 9.61644 10.1003 9.60644 9.89034C9.81644 9.87034 10.0164 9.83034 10.1864 9.72034C10.3164 9.64034 10.4264 9.53034 10.5164 9.41034C10.6664 9.47034 10.8164 9.51034 10.9764 9.51034C11.1464 9.51034 11.3064 9.48034 11.4564 9.42034Z" fill="url(#paint53_radial_39_45)" fill-opacity="0.7"/>
<path d="M11.0001 17C14.237 17 16.8611 14.376 16.8611 11.139C16.8611 7.90212 14.237 5.27808 11.0001 5.27808C7.7632 5.27808 5.13916 7.90212 5.13916 11.139C5.13916 14.376 7.7632 17 11.0001 17Z" fill="url(#paint54_radial_39_45)"/>
<path fill-rule="evenodd" clip-rule="evenodd" d="M8.54995 5.81324L9.21598 6.47926L10.1874 5.50787L10.0364 5.35693C10.35 5.30506 10.6719 5.27808 11.0001 5.27808C11.3916 5.27808 11.7741 5.31645 12.1441 5.38965L12.0258 5.50787L12.9972 6.47926L13.5944 5.88206C13.995 6.08011 14.3696 6.32257 14.7119 6.60303L13.9165 7.3985L14.8722 8.35426L15.6525 7.57398C15.9238 7.92747 16.1557 8.31277 16.3417 8.72331L15.7915 9.2735L16.7785 10.2605L16.7934 10.2456C16.838 10.5369 16.8611 10.8353 16.8611 11.139C16.8611 11.4673 16.8341 11.7892 16.7822 12.1027L16.7785 12.099L15.8071 13.0704L16.3259 13.5892C16.1376 13.9978 15.9037 14.3811 15.6306 14.7324L14.8879 13.9896L13.9321 14.9454L14.6843 15.6976C14.3398 15.9763 13.9632 16.2168 13.5608 16.4125L13.0129 15.8646L12.0258 16.8516L12.0757 16.9015C11.7271 16.9662 11.3675 17 11.0001 17C10.6963 17 10.398 16.9769 10.1067 16.9323L10.1874 16.8516L9.20035 15.8646L8.58439 16.4806C8.17385 16.2946 7.78855 16.0627 7.43506 15.7914L8.28112 14.9454L7.32535 13.9896L6.46411 14.8509C6.18366 14.5085 5.94119 14.1339 5.74315 13.7333L6.40611 13.0704L5.43473 12.099L5.25074 12.283C5.17754 11.913 5.13916 11.5305 5.13916 11.139C5.13916 10.7716 5.17297 10.4121 5.23764 10.0634L5.43473 10.2605L6.42174 9.2735L5.72664 8.5784C5.92241 8.17598 6.16288 7.79932 6.4416 7.45488L7.34098 8.35426L8.29674 7.3985L7.40675 6.50851C7.7581 6.23547 8.14134 6.00153 8.54995 5.81324ZM12.0936 14.9454L11.1066 15.9324L10.1196 14.9454L11.1066 13.9584L12.0936 14.9454ZM13.9686 13.0704L13.0129 14.0261L12.0258 13.0391L12.9816 12.0834L13.9686 13.0704ZM15.8592 11.1797L14.8879 12.1511L13.9008 11.1641L14.8722 10.1927L15.8592 11.1797ZM9.20035 14.0261L10.1874 13.0391L9.2316 12.0834L8.24459 13.0704L9.20035 14.0261ZM7.32535 12.1511L8.31237 11.1641L7.34098 10.1927L6.35397 11.1797L7.32535 12.1511ZM12.0624 11.1641L11.1066 12.1199L10.1508 11.1641L11.1066 10.2084L12.0624 11.1641ZM13.953 9.2735L12.9816 10.2449L12.0258 9.28912L12.9972 8.31774L13.953 9.2735ZM9.2316 10.2449L10.1874 9.28912L9.21598 8.31774L8.26022 9.2735L9.2316 10.2449ZM12.078 7.3985L11.1066 8.36989L10.1352 7.3985L11.1066 6.42711L12.078 7.3985Z" fill="url(#paint55_radial_39_45)"/>
<path fill-rule="evenodd" clip-rule="evenodd" d="M8.54995 5.81324L9.21598 6.47926L10.1874 5.50787L10.0364 5.35693C10.35 5.30506 10.6719 5.27808 11.0001 5.27808C11.3916 5.27808 11.7741 5.31645 12.1441 5.38965L12.0258 5.50787L12.9972 6.47926L13.5944 5.88206C13.995 6.08011 14.3696 6.32257 14.7119 6.60303L13.9165 7.3985L14.8722 8.35426L15.6525 7.57398C15.9238 7.92747 16.1557 8.31277 16.3417 8.72331L15.7915 9.2735L16.7785 10.2605L16.7934 10.2456C16.838 10.5369 16.8611 10.8353 16.8611 11.139C16.8611 11.4673 16.8341 11.7892 16.7822 12.1027L16.7785 12.099L15.8071 13.0704L16.3259 13.5892C16.1376 13.9978 15.9037 14.3811 15.6306 14.7324L14.8879 13.9896L13.9321 14.9454L14.6843 15.6976C14.3398 15.9763 13.9632 16.2168 13.5608 16.4125L13.0129 15.8646L12.0258 16.8516L12.0757 16.9015C11.7271 16.9662 11.3675 17 11.0001 17C10.6963 17 10.398 16.9769 10.1067 16.9323L10.1874 16.8516L9.20035 15.8646L8.58439 16.4806C8.17385 16.2946 7.78855 16.0627 7.43506 15.7914L8.28112 14.9454L7.32535 13.9896L6.46411 14.8509C6.18366 14.5085 5.94119 14.1339 5.74315 13.7333L6.40611 13.0704L5.43473 12.099L5.25074 12.283C5.17754 11.913 5.13916 11.5305 5.13916 11.139C5.13916 10.7716 5.17297 10.4121 5.23764 10.0634L5.43473 10.2605L6.42174 9.2735L5.72664 8.5784C5.92241 8.17598 6.16288 7.79932 6.4416 7.45488L7.34098 8.35426L8.29674 7.3985L7.40675 6.50851C7.7581 6.23547 8.14134 6.00153 8.54995 5.81324ZM12.0936 14.9454L11.1066 15.9324L10.1196 14.9454L11.1066 13.9584L12.0936 14.9454ZM13.9686 13.0704L13.0129 14.0261L12.0258 13.0391L12.9816 12.0834L13.9686 13.0704ZM15.8592 11.1797L14.8879 12.1511L13.9008 11.1641L14.8722 10.1927L15.8592 11.1797ZM9.20035 14.0261L10.1874 13.0391L9.2316 12.0834L8.24459 13.0704L9.20035 14.0261ZM7.32535 12.1511L8.31237 11.1641L7.34098 10.1927L6.35397 11.1797L7.32535 12.1511ZM12.0624 11.1641L11.1066 12.1199L10.1508 11.1641L11.1066 10.2084L12.0624 11.1641ZM13.953 9.2735L12.9816 10.2449L12.0258 9.28912L12.9972 8.31774L13.953 9.2735ZM9.2316 10.2449L10.1874 9.28912L9.21598 8.31774L8.26022 9.2735L9.2316 10.2449ZM12.078 7.3985L11.1066 8.36989L10.1352 7.3985L11.1066 6.42711L12.078 7.3985Z" fill="url(#paint56_linear_39_45)"/>
<defs>
<linearGradient id="paint0_linear_39_45" x1="11.1079" y1="27.8853" x2="11.1079" y2="18.4063" gradientUnits="userSpaceOnUse">
<stop stop-color="#5DA112"/>
<stop offset="1" stop-color="#74A93F"/>
</linearGradient>
<linearGradient id="paint1_linear_39_45" x1="9.98431" y1="26.0156" x2="10.6093" y2="25.9688" gradientUnits="userSpaceOnUse">
<stop stop-color="#51923C"/>
<stop offset="1" stop-color="#51923C" stop-opacity="0"/>
</linearGradient>
<linearGradient id="paint2_linear_39_45" x1="12.1064" y1="26.0625" x2="11.6093" y2="26.0625" gradientUnits="userSpaceOnUse">
<stop stop-color="#51923C"/>
<stop offset="1" stop-color="#51923C" stop-opacity="0"/>
</linearGradient>
<linearGradient id="paint3_linear_39_45" x1="10.0156" y1="21.6563" x2="10.4531" y2="21.6719" gradientUnits="userSpaceOnUse">
<stop stop-color="#8FB87F"/>
<stop offset="1" stop-color="#8FB87F" stop-opacity="0"/>
</linearGradient>
<radialGradient id="paint4_radial_39_45" cx="0" cy="0" r="1" gradientUnits="userSpaceOnUse" gradientTransform="translate(11.3124 25.0313) rotate(90) scale(3.625 0.46875)">
<stop stop-color="#83B15D"/>
<stop offset="1" stop-color="#83B15D" stop-opacity="0"/>
</radialGradient>
<linearGradient id="paint5_linear_39_45" x1="7.63275" y1="22.8003" x2="3.414" y2="28.5113" gradientUnits="userSpaceOnUse">
<stop offset="0.0112" stop-color="#629B53"/>
<stop offset="1" stop-color="#008461"/>
</linearGradient>
<radialGradient id="paint6_radial_39_45" cx="0" cy="0" r="1" gradientUnits="userSpaceOnUse" gradientTransform="translate(6.90687 26.9733) rotate(-33.3106) scale(3.28352 4.2622)">
<stop stop-color="#86AD7A" stop-opacity="0"/>
<stop offset="0.63401" stop-color="#86AD7A" stop-opacity="0.46"/>
<stop offset="0.676108" stop-color="#86AD7A" stop-opacity="0.59475"/>
<stop offset="0.768252" stop-color="#86AD7A" stop-opacity="0.96"/>
<stop offset="0.790291" stop-color="#86AD7A" stop-opacity="0.94"/>
<stop offset="0.802846" stop-color="#86AD7A" stop-opacity="0.93"/>
<stop offset="0.833865" stop-color="#86AD7A" stop-opacity="0.762789"/>
<stop offset="0.930501" stop-color="#86AD7A" stop-opacity="0.14347"/>
<stop offset="1" stop-color="#86AD7A" stop-opacity="0"/>
</radialGradient>
<radialGradient id="paint7_radial_39_45" cx="0" cy="0" r="1" gradientUnits="userSpaceOnUse" gradientTransform="translate(3.54736 25.0104) rotate(-17.3933) scale(3.65969 5.32425)">
<stop stop-color="#008461"/>
<stop offset="1" stop-color="#008461" stop-opacity="0"/>
</radialGradient>
<radialGradient id="paint8_radial_39_45" cx="0" cy="0" r="1" gradientUnits="userSpaceOnUse" gradientTransform="translate(9.90209 27.9389) rotate(-140.477) scale(2.13859 3.1113)">
<stop stop-color="#629B53"/>
<stop offset="1" stop-color="#629B53" stop-opacity="0"/>
</radialGradient>
<radialGradient id="paint9_radial_39_45" cx="0" cy="0" r="1" gradientUnits="userSpaceOnUse" gradientTransform="translate(2.56067 23.2851) rotate(12.0948) scale(4.60651 6.70173)">
<stop stop-color="#528C39"/>
<stop offset="1" stop-color="#528C39" stop-opacity="0"/>
</radialGradient>
<radialGradient id="paint10_radial_39_45" cx="0" cy="0" r="1" gradientUnits="userSpaceOnUse" gradientTransform="translate(7.89454 26.874) rotate(112.329) scale(1.18855 2.71794)">
<stop stop-color="#6FA06A"/>
<stop offset="0.609936" stop-color="#6FA06A" stop-opacity="0.540395"/>
<stop offset="1" stop-color="#6FA06A" stop-opacity="0"/>
</radialGradient>
<linearGradient id="paint11_linear_39_45" x1="9.00775" y1="28.2925" x2="9.00775" y2="26.6319" gradientUnits="userSpaceOnUse">
<stop offset="0.120914" stop-color="#6F7E82"/>
<stop offset="0.70957" stop-color="#6F7E82" stop-opacity="0.213978"/>
<stop offset="1" stop-color="#6F7E82" stop-opacity="0"/>
</linearGradient>
<radialGradient id="paint12_radial_39_45" cx="0" cy="0" r="1" gradientUnits="userSpaceOnUse" gradientTransform="translate(7.84369 23.1875) rotate(158.54) scale(4.86879 6.63165)">
<stop offset="0.845992" stop-color="#92B196" stop-opacity="0"/>
<stop offset="0.861729" stop-color="#92B196" stop-opacity="0.0662196"/>
<stop offset="0.88949" stop-color="#92B196" stop-opacity="0.233747"/>
<stop offset="1" stop-color="#92B196"/>
</radialGradient>
<radialGradient id="paint13_radial_39_45" cx="0" cy="0" r="1" gradientUnits="userSpaceOnUse" gradientTransform="translate(5.65445 23.6415) rotate(98.6775) scale(0.723096 2.49721)">
<stop stop-color="#86AD7A" stop-opacity="0.87"/>
<stop offset="0.37267" stop-color="#86AD7A" stop-opacity="0.650087"/>
<stop offset="0.763042" stop-color="#86AD7A" stop-opacity="0.111912"/>
<stop offset="1" stop-color="#86AD7A" stop-opacity="0"/>
</radialGradient>
<radialGradient id="paint14_radial_39_45" cx="0" cy="0" r="1" gradientUnits="userSpaceOnUse" gradientTransform="translate(9.50073 26.5095) rotate(154.7) scale(0.29792 1.27304)">
<stop stop-color="#86AD7A" stop-opacity="0.87"/>
<stop offset="0.37267" stop-color="#86AD7A" stop-opacity="0.650087"/>
<stop offset="0.763042" stop-color="#86AD7A" stop-opacity="0.111912"/>
<stop offset="1" stop-color="#86AD7A" stop-opacity="0"/>
</radialGradient>
<radialGradient id="paint15_radial_39_45" cx="0" cy="0" r="1" gradientUnits="userSpaceOnUse" gradientTransform="translate(5.52299 24.5589) rotate(104.036) scale(0.984396 2.17791)">
<stop stop-color="#619A6A"/>
<stop offset="0.684596" stop-color="#619A6A" stop-opacity="0.470818"/>
<stop offset="1" stop-color="#619A6A" stop-opacity="0"/>
</radialGradient>
<radialGradient id="paint16_radial_39_45" cx="0" cy="0" r="1" gradientUnits="userSpaceOnUse" gradientTransform="translate(6.26149 25.4531) rotate(114.528) scale(1.4244 2.07228)">
<stop stop-color="#619A6A"/>
<stop offset="0.684596" stop-color="#619A6A" stop-opacity="0.470818"/>
<stop offset="1" stop-color="#619A6A" stop-opacity="0"/>
</radialGradient>
<linearGradient id="paint17_linear_39_45" x1="12.8438" y1="27.8803" x2="20.0195" y2="23.1005" gradientUnits="userSpaceOnUse">
<stop stop-color="#528C39"/>
<stop offset="1" stop-color="#81BD52"/>
</linearGradient>
<radialGradient id="paint18_radial_39_45" cx="0" cy="0" r="1" gradientUnits="userSpaceOnUse" gradientTransform="translate(16.6925 24.5065) rotate(71.7055) scale(1.68105 2.44566)">
<stop stop-color="#87BE58"/>
<stop offset="0.738994" stop-color="#87BE58" stop-opacity="0.658973"/>
<stop offset="1" stop-color="#87BE58" stop-opacity="0"/>
</radialGradient>
<radialGradient id="paint19_radial_39_45" cx="0" cy="0" r="1" gradientUnits="userSpaceOnUse" gradientTransform="translate(15.9653 24.7457) rotate(47.7263) scale(2.1108 1.76138)">
<stop stop-color="#87BE58"/>
<stop offset="0.738994" stop-color="#87BE58" stop-opacity="0.658973"/>
<stop offset="0.996952" stop-color="#87BE58" stop-opacity="0"/>
</radialGradient>
<radialGradient id="paint20_radial_39_45" cx="0" cy="0" r="1" gradientUnits="userSpaceOnUse" gradientTransform="translate(14.1841 26.0826) rotate(61.1443) scale(1.5372 2.23638)">
<stop stop-color="#7BA561"/>
<stop offset="0.658115" stop-color="#7BA561" stop-opacity="0.670984"/>
<stop offset="1" stop-color="#7BA561" stop-opacity="0"/>
</radialGradient>
<radialGradient id="paint21_radial_39_45" cx="0" cy="0" r="1" gradientUnits="userSpaceOnUse" gradientTransform="translate(14.8886 24.722) rotate(65.1258) scale(1.43464 2.41003)">
<stop stop-color="#7BA561"/>
<stop offset="0.677527" stop-color="#7BA561" stop-opacity="0.670984"/>
<stop offset="1" stop-color="#7BA561" stop-opacity="0"/>
</radialGradient>
<radialGradient id="paint22_radial_39_45" cx="0" cy="0" r="1" gradientUnits="userSpaceOnUse" gradientTransform="translate(15.7997 26.1774) rotate(-128.437) scale(0.951672 2.03472)">
<stop stop-color="#7BA561"/>
<stop offset="0.677527" stop-color="#7BA561" stop-opacity="0.670984"/>
<stop offset="1" stop-color="#7BA561" stop-opacity="0"/>
</radialGradient>
<radialGradient id="paint23_radial_39_45" cx="0" cy="0" r="1" gradientUnits="userSpaceOnUse" gradientTransform="translate(16.4504 24.7575) rotate(145.131) scale(2.71125 2.73736)">
<stop stop-color="#87BE58"/>
<stop offset="0.334464" stop-color="#87BE58" stop-opacity="0.658973"/>
<stop offset="0.767767" stop-color="#87BE58" stop-opacity="0.139577"/>
<stop offset="0.920586" stop-color="#87BE58" stop-opacity="0.0613718"/>
<stop offset="0.996952" stop-color="#87BE58" stop-opacity="0"/>
</radialGradient>
<linearGradient id="paint24_linear_39_45" x1="14.2813" y1="28.2188" x2="14.2813" y2="26.8125" gradientUnits="userSpaceOnUse">
<stop stop-color="#6A806E"/>
<stop offset="0.791074" stop-color="#6A806E" stop-opacity="0.100505"/>
<stop offset="1" stop-color="#6A806E" stop-opacity="0"/>
</linearGradient>
<linearGradient id="paint25_linear_39_45" x1="15.4856" y1="22.8003" x2="15.5" y2="23.6939" gradientUnits="userSpaceOnUse">
<stop stop-color="#528C39" stop-opacity="0.51"/>
<stop offset="0.716211" stop-color="#528C39" stop-opacity="0.0494158"/>
<stop offset="1" stop-color="#528C39" stop-opacity="0"/>
</linearGradient>
<radialGradient id="paint26_radial_39_45" cx="0" cy="0" r="1" gradientUnits="userSpaceOnUse" gradientTransform="translate(14.0572 23.1499) rotate(65.6687) scale(1.1507 4.76007)">
<stop stop-color="#528C39" stop-opacity="0.51"/>
<stop offset="0.716211" stop-color="#528C39" stop-opacity="0.0494158"/>
<stop offset="1" stop-color="#528C39" stop-opacity="0"/>
</radialGradient>
<radialGradient id="paint27_radial_39_45" cx="0" cy="0" r="1" gradientUnits="userSpaceOnUse" gradientTransform="translate(19.0001 23.0157) rotate(133.898) scale(1.14926 0.24366)">
<stop stop-color="#9DD271"/>
<stop offset="1" stop-color="#9DD271" stop-opacity="0"/>
</radialGradient>
<linearGradient id="paint28_linear_39_45" x1="14.8124" y1="3.5626" x2="10.5624" y2="21.3751" gradientUnits="userSpaceOnUse">
<stop stop-color="#FFE447"/>
<stop offset="1" stop-color="#F7B44B"/>
</linearGradient>
<radialGradient id="paint29_radial_39_45" cx="0" cy="0" r="1" gradientUnits="userSpaceOnUse" gradientTransform="translate(11 10.954) rotate(90) scale(10.8541 10.9553)">
<stop stop-color="#C69249" stop-opacity="0"/>
<stop offset="0.550461" stop-color="#C69249" stop-opacity="0"/>
<stop offset="0.844078" stop-color="#C69249" stop-opacity="0.112206"/>
<stop offset="0.935879" stop-color="#C69249" stop-opacity="0.257891"/>
<stop offset="1" stop-color="#C69249" stop-opacity="0.52"/>
</radialGradient>
<radialGradient id="paint30_radial_39_45" cx="0" cy="0" r="1" gradientUnits="userSpaceOnUse" gradientTransform="translate(11 -0.275906) rotate(90) scale(22.084 30.0813)">
<stop stop-color="#FFF86D" stop-opacity="0.55"/>
<stop offset="0.73601" stop-color="#FFF86D" stop-opacity="0.108831"/>
<stop offset="1" stop-color="#FFF86D" stop-opacity="0"/>
</radialGradient>
<radialGradient id="paint31_radial_39_45" cx="0" cy="0" r="1" gradientUnits="userSpaceOnUse" gradientTransform="translate(17.2931 4.62787) rotate(-167.32) scale(1.39087 3.71298)">
<stop stop-color="#C69249" stop-opacity="0.58"/>
<stop offset="0.565367" stop-color="#C69249" stop-opacity="0.165921"/>
<stop offset="1" stop-color="#C69249" stop-opacity="0"/>
</radialGradient>
<radialGradient id="paint32_radial_39_45" cx="0" cy="0" r="1" gradientUnits="userSpaceOnUse" gradientTransform="translate(20.1436 8.62448) rotate(-125.073) scale(1.15282 4.22656)">
<stop stop-color="#C69249" stop-opacity="0.58"/>
<stop offset="0.565367" stop-color="#C69249" stop-opacity="0.165921"/>
<stop offset="1" stop-color="#C69249" stop-opacity="0"/>
</radialGradient>
<radialGradient id="paint33_radial_39_45" cx="0" cy="0" r="1" gradientUnits="userSpaceOnUse" gradientTransform="translate(19.8344 13.9657) rotate(-110.183) scale(1.04063 2.68272)">
<stop stop-color="#C69249" stop-opacity="0.58"/>
<stop offset="0.565367" stop-color="#C69249" stop-opacity="0.165921"/>
<stop offset="1" stop-color="#C69249" stop-opacity="0"/>
</radialGradient>
<radialGradient id="paint34_radial_39_45" cx="0" cy="0" r="1" gradientUnits="userSpaceOnUse" gradientTransform="translate(17.2386 18.4807) rotate(-69.6769) scale(1.4936 4.01236)">
<stop stop-color="#C69249" stop-opacity="0.58"/>
<stop offset="0.565367" stop-color="#C69249" stop-opacity="0.165921"/>
<stop offset="1" stop-color="#C69249" stop-opacity="0"/>
</radialGradient>
<radialGradient id="paint35_radial_39_45" cx="0" cy="0" r="1" gradientUnits="userSpaceOnUse" gradientTransform="translate(12.0208 20.2283) rotate(-40.5028) scale(1.63935 2.93622)">
<stop stop-color="#C69249" stop-opacity="0.58"/>
<stop offset="0.565367" stop-color="#C69249" stop-opacity="0.165921"/>
<stop offset="1" stop-color="#C69249" stop-opacity="0"/>
</radialGradient>
<radialGradient id="paint36_radial_39_45" cx="0" cy="0" r="1" gradientUnits="userSpaceOnUse" gradientTransform="translate(5.17279 18.7831) rotate(-108.435) scale(1.71629 3.07402)">
<stop stop-color="#C69249" stop-opacity="0.58"/>
<stop offset="0.565367" stop-color="#C69249" stop-opacity="0.165921"/>
<stop offset="1" stop-color="#C69249" stop-opacity="0"/>
</radialGradient>
<radialGradient id="paint37_radial_39_45" cx="0" cy="0" r="1" gradientUnits="userSpaceOnUse" gradientTransform="translate(1.79575 14.6824) rotate(-86.7295) scale(2.11409 3.78652)">
<stop stop-color="#C69249" stop-opacity="0.58"/>
<stop offset="0.565367" stop-color="#C69249" stop-opacity="0.165921"/>
<stop offset="1" stop-color="#C69249" stop-opacity="0"/>
</radialGradient>
<radialGradient id="paint38_radial_39_45" cx="0" cy="0" r="1" gradientUnits="userSpaceOnUse" gradientTransform="translate(1.31331 8.77255) rotate(-49.6355) scale(1.58292 2.83513)">
<stop stop-color="#C69249" stop-opacity="0.58"/>
<stop offset="0.565367" stop-color="#C69249" stop-opacity="0.165921"/>
<stop offset="1" stop-color="#C69249" stop-opacity="0"/>
</radialGradient>
<radialGradient id="paint39_radial_39_45" cx="0" cy="0" r="1" gradientUnits="userSpaceOnUse" gradientTransform="translate(4.08731 4.00851) rotate(-27.4076) scale(1.83408 3.285)">
<stop stop-color="#C69249" stop-opacity="0.58"/>
<stop offset="0.565367" stop-color="#C69249" stop-opacity="0.165921"/>
<stop offset="1" stop-color="#C69249" stop-opacity="0"/>
</radialGradient>
<radialGradient id="paint40_radial_39_45" cx="0" cy="0" r="1" gradientUnits="userSpaceOnUse" gradientTransform="translate(9.41922 1.11223) rotate(21.4035) scale(1.65707 3.36022)">
<stop stop-color="#C69249" stop-opacity="0.58"/>
<stop offset="0.565367" stop-color="#C69249" stop-opacity="0.165921"/>
<stop offset="1" stop-color="#C69249" stop-opacity="0"/>
</radialGradient>
<radialGradient id="paint41_radial_39_45" cx="0" cy="0" r="1" gradientUnits="userSpaceOnUse" gradientTransform="translate(19.365 15.8944) rotate(146.827) scale(1.57906 3.65765)">
<stop stop-color="#FFF86D"/>
<stop offset="0.682661" stop-color="#FFF86D" stop-opacity="0.124179"/>
<stop offset="1" stop-color="#FFF86D" stop-opacity="0"/>
</radialGradient>
<radialGradient id="paint42_radial_39_45" cx="0" cy="0" r="1" gradientUnits="userSpaceOnUse" gradientTransform="translate(20.5897 10.2646) rotate(99.1623) scale(2.0618 4.77584)">
<stop stop-color="#FFF86D"/>
<stop offset="0.682661" stop-color="#FFF86D" stop-opacity="0.124179"/>
<stop offset="1" stop-color="#FFF86D" stop-opacity="0"/>
</radialGradient>
<radialGradient id="paint43_radial_39_45" cx="0" cy="0" r="1" gradientUnits="userSpaceOnUse" gradientTransform="translate(18.1603 5.30718) rotate(57.875) scale(1.66694 3.8612)">
<stop stop-color="#FFF86D"/>
<stop offset="0.682661" stop-color="#FFF86D" stop-opacity="0.124179"/>
<stop offset="1" stop-color="#FFF86D" stop-opacity="0"/>
</radialGradient>
<radialGradient id="paint44_radial_39_45" cx="0" cy="0" r="1" gradientUnits="userSpaceOnUse" gradientTransform="translate(14.8444 1.9913) rotate(34.7778) scale(1.43894 3.33307)">
<stop stop-color="#FFF86D"/>
<stop offset="0.682661" stop-color="#FFF86D" stop-opacity="0.124179"/>
<stop offset="1" stop-color="#FFF86D" stop-opacity="0"/>
</radialGradient>
<radialGradient id="paint45_radial_39_45" cx="0" cy="0" r="1" gradientUnits="userSpaceOnUse" gradientTransform="translate(1.87634 10.954) rotate(59.2159) scale(1.7961 4.16039)">
<stop stop-color="#FFF86D"/>
<stop offset="0.682661" stop-color="#FFF86D" stop-opacity="0.124179"/>
<stop offset="1" stop-color="#FFF86D" stop-opacity="0"/>
</radialGradient>
<radialGradient id="paint46_radial_39_45" cx="0" cy="0" r="1" gradientUnits="userSpaceOnUse" gradientTransform="translate(2.72993 16.1413) rotate(32.8926) scale(1.70775 5.10407)">
<stop stop-color="#FFF86D" stop-opacity="0.83"/>
<stop offset="0.682661" stop-color="#FFF86D" stop-opacity="0.124179"/>
<stop offset="1" stop-color="#FFF86D" stop-opacity="0"/>
</radialGradient>
<radialGradient id="paint47_radial_39_45" cx="0" cy="0" r="1" gradientUnits="userSpaceOnUse" gradientTransform="translate(6.51411 19.7963) rotate(15.5241) scale(1.17338 3.50695)">
<stop stop-color="#FFF86D" stop-opacity="0.83"/>
<stop offset="0.682661" stop-color="#FFF86D" stop-opacity="0.124179"/>
<stop offset="1" stop-color="#FFF86D" stop-opacity="0"/>
</radialGradient>
<radialGradient id="paint48_radial_39_45" cx="0" cy="0" r="1" gradientUnits="userSpaceOnUse" gradientTransform="translate(15.5258 19.8411) rotate(174.289) scale(1.24397 3.71793)">
<stop stop-color="#FFF86D" stop-opacity="0.83"/>
<stop offset="0.682661" stop-color="#FFF86D" stop-opacity="0.124179"/>
<stop offset="1" stop-color="#FFF86D" stop-opacity="0"/>
</radialGradient>
<radialGradient id="paint49_radial_39_45" cx="0" cy="0" r="1" gradientUnits="userSpaceOnUse" gradientTransform="translate(3.55508 5.8492) rotate(100.66) scale(1.27496 3.81056)">
<stop stop-color="#FFF86D" stop-opacity="0.83"/>
<stop offset="0.682661" stop-color="#FFF86D" stop-opacity="0.124179"/>
<stop offset="1" stop-color="#FFF86D" stop-opacity="0"/>
</radialGradient>
<radialGradient id="paint50_radial_39_45" cx="0" cy="0" r="1" gradientUnits="userSpaceOnUse" gradientTransform="translate(7.53001 2.26288) rotate(128.48) scale(1.3884 5.41653)">
<stop stop-color="#FFF86D" stop-opacity="0.83"/>
<stop offset="0.682661" stop-color="#FFF86D" stop-opacity="0.124179"/>
<stop offset="1" stop-color="#FFF86D" stop-opacity="0"/>
</radialGradient>
<radialGradient id="paint51_radial_39_45" cx="0" cy="0" r="1" gradientUnits="userSpaceOnUse" gradientTransform="translate(12.6021 1.12027) rotate(175.914) scale(1.17346 4.57799)">
<stop stop-color="#FFF86D" stop-opacity="0.83"/>
<stop offset="0.682661" stop-color="#FFF86D" stop-opacity="0.124179"/>
<stop offset="1" stop-color="#FFF86D" stop-opacity="0"/>
</radialGradient>
<radialGradient id="paint52_radial_39_45" cx="0" cy="0" r="1" gradientUnits="userSpaceOnUse" gradientTransform="translate(16.3047 1.11536) rotate(40.3893) scale(2.90642 11.3388)">
<stop stop-color="#FFF86D" stop-opacity="0.83"/>
<stop offset="0.682661" stop-color="#FFF86D" stop-opacity="0.124179"/>
<stop offset="1" stop-color="#FFF86D" stop-opacity="0"/>
</radialGradient>
<radialGradient id="paint53_radial_39_45" cx="0" cy="0" r="1" gradientUnits="userSpaceOnUse" gradientTransform="translate(19.5962 6.119) rotate(-114.746) scale(1.88347 7.34795)">
<stop stop-color="#FFF86D" stop-opacity="0.83"/>
<stop offset="0.682661" stop-color="#FFF86D" stop-opacity="0.124179"/>
<stop offset="1" stop-color="#FFF86D" stop-opacity="0"/>
</radialGradient>
<radialGradient id="paint54_radial_39_45" cx="0" cy="0" r="1" gradientUnits="userSpaceOnUse" gradientTransform="translate(16.4376 9.90631) rotate(152.156) scale(8.76478 7.69386)">
<stop stop-color="#966261"/>
<stop offset="1" stop-color="#7B454A"/>
</radialGradient>
<radialGradient id="paint55_radial_39_45" cx="0" cy="0" r="1" gradientUnits="userSpaceOnUse" gradientTransform="translate(15.4376 9.62506) rotate(146.31) scale(6.08437 6.08437)">
<stop stop-color="#8C6161"/>
<stop offset="1" stop-color="#693542"/>
</radialGradient>
<linearGradient id="paint56_linear_39_45" x1="11.0001" y1="14.2501" x2="11.0001" y2="17.6251" gradientUnits="userSpaceOnUse">
<stop stop-color="#723152" stop-opacity="0"/>
<stop offset="1" stop-color="#723152"/>
</linearGradient>
</defs>
</svg>
